<?xml version="1.0" encoding="UTF-8"?>
<svg width="197px" height="46px" viewBox="0 0 197 46" version="1.1" xmlns="http://www.w3.org/2000/svg" xmlns:xlink="http://www.w3.org/1999/xlink">
    <title>sagomini_logo</title>
    <g id="Page-1" stroke="none" stroke-width="1" fill="none" fill-rule="evenodd">
        <g id="Sago_Mini_Mars_infographic" transform="translate(-585.000000, -147.000000)" fill-rule="nonzero">
            <g id="sagomini_logo" transform="translate(585.000000, 147.000000)">
                <path d="M178.154549,0.250030945 C169.217048,-0.143624333 159.371708,0.0453302004 150.950735,0.0453302004 C142.529761,0.0453302004 134.844448,-0.0648932774 124.200838,0.391746845 C113.557228,0.848386967 104.854512,7.68224259 104.400593,22.7671128 C104.116285,27.6638584 105.25283,32.538178 107.671938,36.7969869 C106.106702,39.0172027 103.64928,42.4341305 103.164056,43.2686797 C102.678833,44.1032289 103.367537,44.1662137 103.962327,43.9930054 C104.557117,43.8197971 108.658037,42.1192063 111.225026,41.0484639 C114.901248,44.0964511 119.515237,45.7661101 124.2791,45.7723273 C130.947009,46.0400129 140.322777,45.9140432 150.168116,45.9140432 C160.013455,45.9140432 168.731824,46.1817288 178.796297,45.7723273 C187.843365,45.4259106 197,36.9387028 197,23.7276317 C197,8.37507588 187.232923,0.643686223 178.154549,0.250030945 Z" id="Path" fill="#FC69C3"></path>
                <path d="M178.527134,19.4475509 C178.625748,18.257461 179.434315,17.2565314 180.553356,16.9392783 C181.522802,16.7267849 182.53067,16.7973732 183.463194,17.1430754 C184.453453,17.6133766 184.66674,18.5069487 184.742914,20.0432657 C184.742914,21.0936048 185.199956,31.8321469 184.895261,33.8230883 C184.810427,34.8993588 184.297818,35.8919285 183.478429,36.5665115 C182.444309,37.0479605 181.276587,37.1314046 180.187722,36.8016621 C179.425985,36.5351581 178.908003,35.6729394 178.664247,34.2933894 C178.45096,32.678689 178.45096,20.2470628 178.527134,19.4475509 Z M181.299859,7.00024805 C180.385971,6.98882112 179.509386,7.37264913 178.883716,8.05819812 C178.258047,8.7437471 177.940752,9.66805868 178.009152,10.6058899 C177.978696,11.564461 178.337514,12.492792 178.999454,13.1679853 C179.661394,13.8431786 180.566667,14.2042491 181.497911,14.1645017 C182.390026,14.1940651 183.252171,13.8313425 183.868613,13.1670975 C184.485054,12.5028524 184.797468,11.5999325 184.727679,10.6842735 C184.760607,9.72435158 184.415033,8.79149711 183.769492,8.09770605 C183.123951,7.40391498 182.233269,7.00811297 181.299859,7.00024805 L181.299859,7.00024805 Z" id="Shape" fill="#FFFFFF"></path>
                <path d="M156.366498,16.9072047 C157.132953,14.764034 160.374417,14.9559597 161.619905,16.6832914 C163.528489,15.3416877 165.872073,14.7705438 168.182672,15.0839102 C171.739339,15.2246755 174.583058,18.0939702 174.697535,21.6573667 C174.968987,24.5682405 175.080762,31.9573814 174.937052,33.7007069 C174.809309,35.1401499 174.44205,36.0517972 173.611724,36.4676363 C172.614587,36.9290734 171.506582,37.0955448 170.418164,36.9474506 C169.348321,36.739531 168.278478,36.4356486 167.959122,34.1485336 C167.68767,32.3252391 168.1188,24.6482095 167.512024,23.080816 C166.649763,20.8576762 163.18475,21.8652863 162.913297,23.2247603 C162.546038,25.0800424 163.057007,32.4052081 162.705716,34.7562984 C162.618533,35.6677056 161.986155,36.4341289 161.108935,36.6915496 C160.207973,36.9748476 159.246255,37.0025282 158.330538,36.7715187 C157.436341,36.5156177 156.733758,36.5156177 156.318595,34.2764841 C156.158917,33.0769482 155.663915,18.9064312 156.366498,16.9072047 Z" id="Path" fill="#FFFFFF"></path>
                <path d="M147.121038,19.389059 C147.249187,18.2462414 148.098227,17.3112629 149.232158,17.0642533 C150.224291,16.9002201 151.240666,16.9534781 152.209782,17.2202805 C153.12355,17.5011295 153.454397,18.5933201 153.564679,19.9975651 C153.564679,21.0429475 153.73798,32.9010165 153.564679,34.5549051 C153.631519,35.501255 153.060568,36.3780151 152.162518,36.7080808 C151.051724,37.0266792 149.881395,37.0854327 148.743765,36.8797107 C148.050561,36.7392862 147.451885,36.3492182 147.341603,34.8825623 C147.231321,33.4159063 146.995001,20.1847978 147.121038,19.389059 Z M150.413755,7.0004974 C149.467168,6.98428951 148.557708,7.36482513 147.909603,8.04828316 C147.261498,8.73174118 146.935054,9.6545255 147.010756,10.5891235 C146.973781,11.5502335 147.34752,12.482271 148.040213,13.1564059 C148.732905,13.8305409 149.680401,14.1843406 150.650074,14.1309415 C151.572632,14.1603654 152.464196,13.7993546 153.101673,13.1382442 C153.73915,12.4771339 154.062224,11.578475 153.990054,10.6671372 C154.024265,9.70635349 153.662635,8.77307375 152.988205,8.08160706 C152.313775,7.39014036 151.384495,6.99990018 150.413755,7.0004974 Z" id="Shape" fill="#FFFFFF"></path>
                <path d="M121.939375,33.6616469 C121.765649,35.3856211 121.355025,36.0224044 120.470603,36.5659999 C119.054294,37.1756557 117.436949,37.1415731 116.048496,36.4728121 C115.29042,35.742841 115.100901,35.2613707 115.006142,33.6305843 C115.006142,32.2948926 115.006142,27.6665655 115.006142,26.3464051 C114.97096,23.5725419 115.086943,20.7988173 115.353593,18.0371601 C115.682018,16.4923604 117.065359,15.3846083 118.670174,15.3813079 C120.470603,15.3813079 120.912814,15.955966 121.307645,16.8257187 C121.307645,17.0120943 121.57613,16.9810317 121.702476,16.8257187 C123.034453,15.7537211 124.720821,15.2009215 126.440448,15.2725888 C128.253715,15.0714765 130.026869,15.8952456 131.020488,17.4003768 C131.304767,17.6022837 131.415319,17.6022837 131.683804,17.4003768 C132.362914,16.8567813 133.594787,14.8532438 138.411725,15.0085567 C142.249483,15.1328071 144.065705,17.3537829 144.47633,20.941513 C144.890454,25.1998243 145.059185,29.4777716 144.981713,33.7548347 C145.032012,34.8995007 144.351084,35.9535538 143.276043,36.3951556 C142.201563,36.6899603 141.06553,36.6899603 139.991049,36.3951556 C138.890305,36.1142354 138.147837,35.1037556 138.222206,33.9878042 C138.222206,32.9316759 137.890548,26.3619364 137.701029,23.9079911 C137.650482,22.9286233 136.859695,22.1429878 135.864376,22.0833042 C134.869057,22.0236206 133.987064,22.708949 133.815892,23.6750216 C133.642166,24.7466813 133.815892,32.4967995 133.626373,33.7082408 C133.436854,34.9196822 133.468441,35.6185906 132.584019,36.2398426 C131.047363,37.0671178 129.19756,37.1076715 127.624942,36.3485617 C126.818832,35.6244224 126.394076,34.5772852 126.472035,33.5063339 C126.329896,31.953204 126.472035,24.9330569 126.25093,23.799272 C126.060088,22.886395 125.231946,22.2388887 124.284545,22.2617991 C123.337144,22.2847094 122.542364,22.9714617 122.397379,23.8924598 C122.192067,25.2436828 122.034134,32.8074255 121.939375,33.6616469 Z" id="Path" fill="#FFFFFF"></path>
                <path d="M97.8417149,23.9916738 C97.8417149,18.3290048 97.9356503,7.42954992 97.7164678,3.88052338 C97.7164678,2.77638179 96.9493288,2.01925613 95.3993951,2.01925613 C94.3347941,2.01925613 88.5108007,2.01925613 87.0704583,2.01925613 C85.6301158,2.01925613 79.3207896,2.09812338 78.5849624,2.01925613 C77.3847719,1.86013027 76.2812762,2.70452122 76.1113308,3.91207028 C75.8608365,5.48941541 76.1113308,17.7611605 76.1113308,22.6982508 C76.1113308,27.3356455 76.1113308,40.5695711 76.4401046,43.676941 C76.4964734,44.8480321 77.3956182,45.8009006 78.5536506,45.9167711 C79.6495634,46.0429587 85.2700302,46.0114118 87.1487377,45.9167711 C88.7143274,45.9167711 93.6615906,45.9167711 95.2115243,45.8221304 C97.1058878,45.6959428 97.9669621,45.1596454 97.9982739,42.5097056 C98.0139298,40.3329693 97.9199944,29.102272 97.8417149,23.9916738 Z M89.6380252,36.8470366 C89.6380252,37.0836384 89.6380252,37.0994118 89.4344986,37.1151853 C88.8239186,37.1151853 85.1134712,37.3044667 84.5968266,37.2886932 C84.4715795,37.2886932 84.4089559,37.2886932 84.3933,37.0678649 C84.2993646,36.1687782 84.1584615,30.4114685 84.1271497,25.8687145 C84.1271497,20.4111003 83.9079672,15.2216349 83.9079672,15.01658 C83.9079672,14.8115251 83.9079672,14.5591499 84.2210851,14.5433765 C84.534203,14.527603 88.3698976,14.2752278 88.7143274,14.2752278 C89.0587571,14.2752278 89.1526925,14.2752278 89.215316,14.6695641 C89.3092514,15.3162756 89.4971222,20.7423428 89.6067135,26.0106756 C89.7006488,30.884672 89.7319606,35.7586685 89.6380252,36.8470366 Z" id="Shape" fill="#72BE44"></path>
                <path d="M51.013523,3.92112226 C51.013523,3.06455608 51.324895,2.3637292 53.0063042,2.22356383 C53.8781459,2.22356383 67.5473795,1.95880701 67.9833004,2.0055288 C68.7461619,2.09897239 69.1509456,2.42602493 69.1976514,3.15799966 C69.2443572,3.8899744 69.4467491,9.52773726 69.3222003,10.5088949 C69.3222003,11.1162782 69.3222003,11.3654611 68.824005,11.3966089 C67.5629481,11.4900525 60.3391163,11.3966089 59.8253523,11.4900525 C59.5762547,11.4900525 59.4828431,11.4900525 59.4517059,11.832679 C59.4205687,12.1753055 59.5451175,22.1114731 59.5762547,23.3418137 C59.6073919,24.5721542 59.5762547,36.3304717 59.5762547,37.0157247 C59.5762547,37.389499 59.5762547,37.6542558 59.9499012,37.623108 C60.3235476,37.5919601 65.0719716,37.3739251 65.8504018,37.405073 C66.1462052,37.405073 66.2240482,37.3272033 66.2240482,36.8599854 C66.2240482,35.6763667 66.0994994,30.6304132 66.115068,29.0730201 C66.115068,28.8238372 66.115068,28.5435065 65.881539,28.5435065 C65.6480099,28.5435065 64.3246787,28.5435065 63.6863659,28.5435065 C63.0480532,28.5435065 62.8300928,28.3877672 62.7211125,27.7180881 C62.6121323,27.0484091 62.5965637,22.5163953 62.6121323,21.4885159 C62.6277009,20.4606365 63.0791904,20.4762104 63.6240915,20.5073583 C64.1689926,20.5385062 70.3964339,20.3827669 70.785649,20.3827669 C71.4239617,20.3827669 71.9688628,20.6163758 72,21.1926112 C72,22.2049167 72,32.234528 72,33.1689638 C72,34.1033997 72,42.0305303 72,43.1207055 C72,44.2108806 71.3928245,44.6780985 70.6922373,44.7715421 C69.9916502,44.8649857 63.5462485,44.8805596 62.0983684,44.8961336 C60.6504883,44.9117075 54.5008901,45.0362989 53.4266565,44.9895771 C52.4405446,45.0024391 51.6086373,44.2582023 51.5117183,43.2764448 C51.4027381,42.6379136 51.2003462,29.4623684 51.1536404,24.1828059 C51.1225032,17.2679807 50.9512486,4.77768844 51.013523,3.92112226 Z" id="Path" fill="#FAA61A"></path>
                <path d="M47.977586,45.2506569 C47.977586,44.7463759 46.5499882,26.2140495 46.3482625,24.1181316 C46.0844672,21.4076213 44.3775568,4.40389668 43.7878969,2.05583832 C43.5551364,1.18910537 43.1206501,1.0787939 42.0965039,1 C41.4137397,1 31.45159,1 30.0705443,1 C28.6894986,1 28.2860471,1.42548709 28.0377692,2.57587809 C27.4015571,5.72763428 26.2843067,16.7587809 25.8343031,21.6912794 C25.3222299,27.0019885 24.0187711,43.7535727 24.0032537,44.4312003 C23.9877364,45.1088278 24.0032537,44.9669988 24.6239484,44.9985164 C25.6946468,45.0773103 31.74642,45.1876217 32.2895278,45.1876217 C32.8326357,45.1876217 32.9412572,44.6518232 32.972292,44.2893712 C33.0653962,43.2492917 32.972292,39.3253552 32.972292,38.7737979 C32.972292,38.5058986 33.0809135,38.3955872 33.437813,38.3955872 C34.0429903,38.3955872 37.7981932,38.3955872 38.2326794,38.3955872 C38.6671657,38.3955872 38.6671657,38.7422803 38.6671657,38.9944208 C38.6671657,39.2465613 38.6671657,44.7148583 38.6671657,45.1245866 C38.6671657,45.5343149 38.9930304,45.9755608 39.7223467,45.9913196 C40.4516629,46.0070784 46.6896445,45.9913196 47.5586171,45.9913196 C48.1172423,46.0543547 47.9931034,45.7706966 47.977586,45.2506569 Z M38.5585441,29.917363 C38.5585441,30.2640562 38.5585441,30.7053021 38.046471,30.7683372 C37.0149964,30.8674834 35.9789745,30.909569 34.9429976,30.8944074 C34.539546,30.8944074 34.3843724,30.8944074 34.3223029,30.4058852 C34.1205771,28.6881781 34.2447161,17.7988605 34.3223029,16.6484695 C34.3223029,16.3175351 34.3223029,16.2229824 34.663685,16.175706 C35.0050671,16.1284297 37.5188805,16.033877 37.9223321,16.0496358 C38.3257836,16.0653946 38.3568184,16.0496358 38.3568184,16.4751229 C38.4033705,18.8704576 38.6050962,28.1523796 38.5585441,29.917363 Z" id="Shape" fill="#51BEB5"></path>
                <path d="M17.4953739,1.16026812 C19.0167711,1.12668192 20.3477853,2.16990816 20.6669812,3.64611992 C20.6669812,4.84184611 20.8414196,12.5511333 20.6669812,13.1647297 C20.4925428,13.778326 20.5084009,14.1244573 19.5410606,14.1244573 C18.5737204,14.1244573 13.6894451,14.1244573 13.197846,13.9828581 C12.7062468,13.841259 12.1987897,13.5895271 12.1987897,12.6927325 C12.1987897,12.1420691 12.3097959,10.9148765 12.1987897,10.4743458 C12.2583798,9.85301605 11.8556367,9.28029383 11.2473075,9.12128718 C10.733836,8.94383586 10.1749752,8.94383586 9.66150381,9.12128718 C9.08080985,9.36525423 8.70099926,9.92739793 8.69416358,10.553012 C8.62922894,12.0157216 8.7142416,13.4811923 8.94789217,14.9268525 C9.11453385,15.6132531 9.5256818,16.2167399 10.1055288,16.6260423 C11.1045851,17.4441707 17.083065,21.5820127 18.1455534,22.5102738 C19.8276389,24.136038 20.844324,26.3215204 21,28.6462371 C21,29.8104968 21,32.5008807 21,35.1755314 C21,37.8501821 20.8572777,40.5248327 20.7304134,41.4688271 C20.2388142,45.1504051 18.2248436,45.8741341 15.6716997,46 C14.5299211,46 6.26788398,46 4.99924105,45.9056006 C2.49367126,45.7797347 1.05058993,44.5368087 0.717571157,41.264295 C0.470262176,38.8075115 0.401366296,36.3362626 0.511416681,33.8696725 C0.685855084,33.1459435 0.84443545,32.8784785 1.66905335,32.847012 C2.49367126,32.8155455 7.59995905,32.847012 8.4880091,32.9886111 C9.01132431,32.9886111 9.32848504,33.2560762 9.39191719,33.7123401 C9.48706541,34.4990021 9.39191719,35.6475286 9.47120737,36.3083246 C9.51718645,36.8709002 9.83678662,37.3758875 10.3275414,37.6613832 C10.83747,37.8320937 11.380888,37.8806164 11.913345,37.8029823 C12.4208022,37.8029823 12.6903888,37.4568511 12.785537,36.6859224 C13.2269445,34.1268771 12.9016256,31.495573 11.8499129,29.1182343 C11.041153,27.7494425 4.85651872,24.3982625 3.77817223,23.643067 C1.88423539,22.4904929 0.588079929,20.5787828 0.225972022,18.4038983 C-0.0753240074,13.5784189 -0.0753240074,8.73906448 0.225972022,3.91358499 C0.600911296,2.45304527 1.88158027,1.39845512 3.39757935,1.30186727 C8.08889002,0.9540433 12.7979271,0.90674543 17.4953739,1.16026812 L17.4953739,1.16026812 Z" id="Path" fill="#FC7A38"></path>
            </g>
        </g>
    </g>
</svg>