<?xml version="1.0" encoding="UTF-8"?>
<svg width="1366px" height="315px" viewBox="0 0 1366 315" version="1.1" xmlns="http://www.w3.org/2000/svg" xmlns:xlink="http://www.w3.org/1999/xlink">
    <title>Path</title>
    <g id="Page-1" stroke="none" stroke-width="1" fill="none" fill-rule="evenodd" opacity="0.0655006771">
        <g id="Sago_Mini_Mars_infographic" transform="translate(0.000000, -4580.000000)" fill="#6C63FF" fill-rule="nonzero">
            <path d="M-357.151583,4761.24829 C-316.079976,4741.40227 -223.200284,4744.86161 -157.334954,4755.22156 C-91.4696231,4765.58151 -25.7469022,4781.0461 46.7395953,4778.07492 C107.858059,4775.5678 157.975199,4759.80188 185.050678,4741.61321 C212.126157,4723.42454 220.071557,4702.91558 227.690992,4682.82849 C237.266218,4657.59257 246.834653,4632.34057 256.396297,4607.07251 C259.900422,4597.83353 264.036105,4588.08228 281.597477,4580.77186 C304.80212,4571.12909 347.340571,4568.16394 383.726429,4571.0628 C420.112288,4573.96166 451.140094,4581.73614 477.68588,4590.4086 C562.722035,4618.17977 610.903757,4655.72026 685.244181,4686.62533 C700.381188,4692.91724 717.473984,4699.13682 740.087816,4702.17429 C772.68433,4706.54367 810.109202,4703.45196 841.951921,4698.58839 C945.853309,4682.74412 1015.65059,4650.41072 1084.24588,4620.24091 C1117.61656,4605.57788 1158.30109,4589.89633 1213.81702,4588.29925 C1272.2259,4586.58163 1322.93385,4601.30493 1357.26206,4616.89608 C1467.43827,4667.06257 1491.05037,4735.55032 1624.14601,4779.30437 C1640.66837,4784.72843 1658.90205,4789.74267 1679.90643,4793.11161 C1686.83359,4794.21891 1694.05622,4795.1562 1701.50162,4795.91404 C1817.6267,4807.80477 1856.33506,4855.53647 1770.44324,4883.83799 C1768.58932,4884.44066 1766.69464,4885.04333 1764.7796,4885.64601 C1752.02621,4889.62967 1737.58188,4893.39638 1720.34648,4894.58364 C1704.31307,4895.68051 1687.74996,4894.4149 1671.85916,4893.04683 C1570.28028,4884.27794 1469.92376,4870.87449 1364.90187,4871.52538 C1262.7118,4872.12805 1224.82743,4814.92765 1123.77824,4819.95394 C1055.83488,4823.33493 546.383033,4755.9508 477.68588,4755.22156 C248.885517,4752.78676 401.410038,4887.82768 172.704748,4884.59735 C59.187389,4883.05451 -54.3707159,4881.58399 -167.867702,4879.86637 C-255.30785,4878.52241 -311.007143,4875.56329 -321.152808,4845.54415 C-330.035358,4819.25556 -409.815326,4786.70519 -357.151583,4761.24829 Z" id="Path" transform="translate(721.000000, 4732.500000) scale(1, -1) translate(-721.000000, -4732.500000) "></path>
        </g>
    </g>
</svg>