<?xml version="1.0" encoding="UTF-8"?>
<svg width="1282px" height="183px" viewBox="0 0 1282 183" version="1.1" xmlns="http://www.w3.org/2000/svg" xmlns:xlink="http://www.w3.org/1999/xlink">
    <title>Path</title>
    <g id="Page-1" stroke="none" stroke-width="1" fill="none" fill-rule="evenodd" opacity="0.0877523512">
        <g id="Sago_Mini_Mars_infographic" transform="translate(-84.000000, -7063.000000)" fill="#6C63FF" fill-rule="nonzero">
            <path d="M101.848417,7173.62978 C142.920024,7162.14962 235.799716,7164.15072 301.665046,7170.14355 C367.530377,7176.13638 433.253098,7185.08205 505.739595,7183.36334 C566.858059,7181.91307 616.975199,7172.79308 644.050678,7162.27164 C671.126157,7151.75019 679.071557,7139.88655 686.690992,7128.26694 C696.266218,7113.66893 705.834653,7099.06162 715.396297,7084.44502 C718.900422,7079.10063 723.036105,7073.45991 740.597477,7069.23111 C763.80212,7063.65314 806.340571,7061.93791 842.726429,7063.61479 C879.112288,7065.29167 910.140094,7069.7889 936.68588,7074.80559 C1021.72204,7090.87014 1069.90376,7112.58588 1144.24418,7130.46327 C1159.38119,7134.10289 1176.47398,7137.70068 1199.08782,7139.45774 C1231.68433,7141.98526 1269.1092,7140.19683 1300.95192,7137.38344 C1404.85331,7128.21814 1474.65059,7109.51451 1543.24588,7092.06243 C1576.61656,7083.58043 1617.30109,7074.50926 1672.81702,7073.58541 C1731.2259,7072.59183 1781.93385,7081.1087 1816.26206,7090.12758 C1926.43827,7119.14696 1950.05037,7158.76449 2083.14601,7184.07453 C2099.66837,7187.21214 2117.90205,7190.11268 2138.90643,7192.06148 C2145.83359,7192.70202 2153.05622,7193.2442 2160.50162,7193.68258 C2276.6267,7200.56091 2315.33506,7228.17186 2229.44324,7244.5432 C2227.58932,7244.89183 2225.69464,7245.24045 2223.7796,7245.58907 C2211.02621,7247.89347 2196.58188,7250.07237 2179.34648,7250.75915 C2163.31307,7251.39365 2146.74996,7250.66154 2130.85916,7249.87017 C2029.28028,7244.7977 1928.92376,7237.04432 1823.90187,7237.42083 C1721.7118,7237.76946 1683.82743,7204.68122 1582.77824,7207.58874 C1514.83488,7209.54452 1005.38303,7170.56538 936.68588,7170.14355 C707.885517,7168.73511 860.410038,7246.85109 631.704748,7244.98247 C518.187389,7244.08999 404.629284,7243.23935 291.132298,7242.24578 C203.69215,7241.46835 147.992857,7239.75661 137.847192,7222.39169 C128.964642,7207.18475 49.1846744,7188.35562 101.848417,7173.62978 Z" id="Path"></path>
        </g>
    </g>
</svg>