<?xml version="1.0" encoding="UTF-8"?>
<svg width="1176px" height="533px" viewBox="0 0 1176 533" version="1.1" xmlns="http://www.w3.org/2000/svg" xmlns:xlink="http://www.w3.org/1999/xlink">
    <title>Path</title>
    <g id="Page-1" stroke="none" stroke-width="1" fill="none" fill-rule="evenodd" opacity="0.072294">
        <g id="Sago_Mini_Mars_infographic" transform="translate(-190.000000, -10315.000000)" fill="#6C63FF" fill-rule="nonzero">
            <path d="M207.848417,10638.651 C248.920024,10605.0654 341.799716,10610.9197 407.665046,10628.4519 C473.530377,10645.9841 539.253098,10672.1549 611.739595,10667.1268 C672.858059,10662.884 722.975199,10636.2032 750.050678,10605.4224 C777.126157,10574.6415 785.071557,10539.9341 792.690992,10505.9405 C802.266218,10463.2336 811.834653,10420.4994 821.396297,10377.7381 C824.900422,10362.1029 829.036105,10345.6008 846.597477,10333.2293 C869.80212,10316.9108 912.340571,10311.8928 948.726429,10316.7986 C985.112288,10321.7043 1016.14009,10334.8612 1042.68588,10349.5376 C1127.72204,10396.535 1175.90376,10460.0651 1250.24418,10512.3659 C1265.38119,10523.0138 1282.47398,10533.5392 1305.08782,10538.6796 C1337.68433,10546.0739 1375.1092,10540.8418 1406.95192,10532.6111 C1510.85331,10505.7977 1580.65059,10451.0797 1649.24588,10400.0231 C1682.61656,10375.2087 1723.30109,10348.6707 1778.81702,10345.968 C1837.2259,10343.0612 1887.93385,10367.9776 1922.26206,10394.3626 C2032.43827,10479.2597 2056.05037,10595.1621 2189.14601,10669.2074 C2205.66837,10678.3866 2223.90205,10686.8722 2244.90643,10692.5735 C2251.83359,10694.4474 2259.05622,10696.0336 2266.50162,10697.3161 C2382.6267,10717.4388 2421.33506,10798.2156 2335.44324,10846.1104 C2333.58932,10847.1303 2331.69464,10848.1503 2329.7796,10849.1702 C2317.02621,10855.9118 2302.58188,10862.2862 2285.34648,10864.2954 C2269.31307,10866.1516 2252.74996,10864.0098 2236.85916,10861.6946 C2135.28028,10846.855 2034.92376,10824.1722 1929.90187,10825.2737 C1827.7118,10826.2936 1789.82743,10729.4929 1688.77824,10737.999 C1620.83488,10743.7207 1111.38303,10629.686 1042.68588,10628.4519 C813.885517,10624.3314 966.410038,10852.8622 737.704748,10847.3955 C624.187389,10844.7846 510.629284,10842.296 397.132298,10839.3892 C309.69215,10837.1148 253.992857,10832.1071 243.847192,10781.3055 C234.964642,10736.8171 155.184674,10681.7319 207.848417,10638.651 Z" id="Path"></path>
        </g>
    </g>
</svg>