<?xml version="1.0" encoding="UTF-8"?>
<svg width="3158px" height="3158px" viewBox="0 0 3158 3158" version="1.1" xmlns="http://www.w3.org/2000/svg" xmlns:xlink="http://www.w3.org/1999/xlink">
    <title>Mars</title>
    <defs>
        <filter x="-6.0%" y="-6.0%" width="112.1%" height="112.1%" filterUnits="objectBoundingBox" id="filter-1">
            <feGaussianBlur stdDeviation="50" in="SourceGraphic"></feGaussianBlur>
        </filter>
        <filter x="-5.2%" y="-5.2%" width="110.5%" height="110.5%" filterUnits="objectBoundingBox" id="filter-2">
            <feGaussianBlur stdDeviation="50" in="SourceGraphic"></feGaussianBlur>
        </filter>
        <linearGradient x1="53.5501611%" y1="0%" x2="42.6733954%" y2="100%" id="linearGradient-3">
            <stop stop-color="#EFB473" offset="0%"></stop>
            <stop stop-color="#C34751" offset="100%"></stop>
        </linearGradient>
        <filter x="0.0%" y="0.0%" width="100.0%" height="100.0%" filterUnits="objectBoundingBox" id="filter-4">
            <feGaussianBlur stdDeviation="0" in="SourceGraphic"></feGaussianBlur>
        </filter>
        <linearGradient x1="92.6609293%" y1="53.5650444%" x2="6.15231421%" y2="48.0339885%" id="linearGradient-5">
            <stop stop-color="#FC654A" offset="0%"></stop>
            <stop stop-color="#EFA45F" offset="100%"></stop>
        </linearGradient>
        <linearGradient x1="92.6609293%" y1="54.0553978%" x2="6.15231421%" y2="47.7635737%" id="linearGradient-6">
            <stop stop-color="#FC654A" offset="0%"></stop>
            <stop stop-color="#F9754F" offset="25.139886%"></stop>
            <stop stop-color="#EFA45F" offset="100%"></stop>
        </linearGradient>
        <linearGradient x1="5.05579115%" y1="47.1291976%" x2="80.3096954%" y2="54.3722789%" id="linearGradient-7">
            <stop stop-color="#FA6C4C" offset="0%"></stop>
            <stop stop-color="#EFA45F" offset="100%"></stop>
        </linearGradient>
        <linearGradient x1="5.05579115%" y1="47.0849482%" x2="80.3096954%" y2="54.4396714%" id="linearGradient-8">
            <stop stop-color="#FA6C4C" offset="0%"></stop>
            <stop stop-color="#EFA45F" offset="100%"></stop>
        </linearGradient>
        <linearGradient x1="5.05579115%" y1="46.3694991%" x2="79.773416%" y2="55.4640368%" id="linearGradient-9">
            <stop stop-color="#FA6C4C" offset="0%"></stop>
            <stop stop-color="#D0735A" offset="100%"></stop>
        </linearGradient>
        <linearGradient x1="50%" y1="0%" x2="50%" y2="98.3979096%" id="linearGradient-10">
            <stop stop-color="#D57C51" offset="0%"></stop>
            <stop stop-color="#E29B57" offset="100%"></stop>
        </linearGradient>
        <linearGradient x1="50%" y1="0%" x2="50%" y2="96.4475077%" id="linearGradient-11">
            <stop stop-color="#E29268" offset="0%"></stop>
            <stop stop-color="#EBAA6F" offset="100%"></stop>
        </linearGradient>
        <linearGradient x1="50%" y1="0%" x2="50%" y2="96.2137711%" id="linearGradient-12">
            <stop stop-color="#D57C51" offset="0%"></stop>
            <stop stop-color="#D1685B" offset="100%"></stop>
        </linearGradient>
        <linearGradient x1="50%" y1="0%" x2="50%" y2="96.2137711%" id="linearGradient-13">
            <stop stop-color="#D57C51" offset="0%"></stop>
            <stop stop-color="#D1685B" offset="100%"></stop>
        </linearGradient>
        <linearGradient x1="50%" y1="0.426623563%" x2="50%" y2="96.2137711%" id="linearGradient-14">
            <stop stop-color="#B4493C" offset="0%"></stop>
            <stop stop-color="#C54C52" offset="100%"></stop>
        </linearGradient>
    </defs>
    <g id="Page-1" stroke="none" stroke-width="1" fill="none" fill-rule="evenodd">
        <g id="Mars" transform="translate(150.000000, 150.000000)">
            <circle id="Oval" fill="#FF30B6" opacity="0.165876116" filter="url(#filter-1)" cx="1427.5" cy="1534.5" r="1240.5"></circle>
            <circle id="Oval" fill="#5C30F9" opacity="0.208379836" filter="url(#filter-2)" cx="1429" cy="1429" r="1429"></circle>
            <ellipse id="Oval" fill="url(#linearGradient-3)" filter="url(#filter-4)" cx="1421" cy="1527" rx="962" ry="963"></ellipse>
            <path d="M771.051519,818.110841 C966.289682,835.146359 1128.90105,861.369077 1258.88562,896.778995 C1383.95774,930.850683 1407.31351,960.124008 1328.95292,984.59897 L1328.95292,984.598978 C1327.37142,985.092941 1326.48979,986.775438 1326.98376,988.356941 C1327.29167,989.34276 1328.08501,990.100883 1329.08378,990.363741 C1761.02793,1104.04288 1977,1174.42796 1977,1201.51898 C1977,1228.82701 1912.40353,1228.82701 1783.21058,1201.51898 L1783.21058,1201.51898 C1494.7592,1139.6646 1274.56731,1097.03412 1122.63489,1073.62756 C972.047291,1050.42819 799.900602,1034.10457 606.194821,1024.65671 L606.194822,1024.6567 C604.539943,1024.57598 603.263831,1023.16901 603.344547,1021.51413 C603.370271,1020.98672 603.534745,1020.47544 603.821351,1020.03195 C640.609936,963.106362 669.694947,922.022043 691.076383,896.778995 C712.770697,871.166563 738.68392,845.187248 768.816054,818.841051 L768.816043,818.841039 C769.430772,818.303547 770.238038,818.039861 771.051519,818.110841 Z" id="Rectangle" fill="url(#linearGradient-5)"></path>
            <path d="M1060.24992,1450.91466 C1187.86492,1485.74842 1140.94094,1522.47268 919.477963,1561.08744 L919.477963,1561.08744 C917.845735,1561.37204 916.753266,1562.92593 917.037865,1564.55816 C917.241555,1565.72636 918.114251,1566.66495 919.26456,1566.953 C1515.08819,1716.14989 1813,1804.32498 1813,1831.47826 C1813,1858.84058 1748.40395,1858.84058 1619.21185,1831.47826 L1619.21185,1831.47826 C1331.86693,1785.48299 1112.22876,1750.75881 960.297344,1727.30571 C787.527169,1700.63581 464.917842,1614.23928 462.821083,1610.4175 C461.493312,1607.99735 459.253372,1566.55892 459.235121,1563.49633 C459.108991,1542.3312 458.775893,1517.30883 459.235121,1506.12842 C460.018104,1487.06583 459.848311,1472.49895 461.631838,1455.37429 C461.789535,1453.86015 864.850982,1397.5786 1060.24992,1450.91466 Z" id="Rectangle" fill="url(#linearGradient-6)"></path>
            <path d="M978.633924,1072.51453 L1959.25338,1367.2622 C2307.84127,1473.63961 2482.13521,1543.3328 2482.13521,1576.34177 C2482.13521,1609.35073 2404.40356,1609.36169 2248.94026,1576.37464 L2248.94026,1576.37464 C2055.04817,1514.0202 1927.45278,1476.60163 1866.15408,1464.11892 C1662.02202,1422.55001 1580.11041,1441.38493 1454.06355,1421.89611 C1379.34878,1410.34405 1520.10456,1370.18263 1438.26794,1360.43377 C1363.18174,1351.48906 1165.69989,1349.08946 845.822379,1353.23495 L845.822379,1353.23495 C844.165663,1353.25642 842.805223,1351.93079 842.783753,1350.27408 C842.779489,1349.94506 842.829382,1349.61759 842.931433,1349.30477 C850.273019,1326.80051 854.870765,1312.89207 856.72467,1307.57944 C862.335565,1291.50061 867.27632,1279.43651 870.126413,1272.12352 C886.625114,1229.78991 903.073323,1195.68232 916.692811,1171.0292 C916.936817,1170.58752 925.23261,1154.91774 943.93124,1123.90021 C948.613599,1116.13306 959.047684,1099.42839 975.233494,1073.78622 C975.952753,1072.64677 977.343482,1072.12666 978.633924,1072.51453 Z" id="Rectangle" fill="url(#linearGradient-7)" transform="translate(1661.883648, 1336.482505) scale(-1, 1) rotate(-32.000000) translate(-1661.883648, -1336.482505) "></path>
            <path d="M2008.76242,889.632265 C2252.71672,996.024823 2374.69388,1065.72565 2374.69388,1098.73474 C2374.69388,1131.74382 2320.29316,1131.75149 2211.49174,1098.75775 L2211.49174,1098.75775 C2075.79846,1036.39487 1986.50205,998.970754 1943.60252,986.48541 C1800.74188,944.907706 1743.41502,963.739224 1655.20159,944.245004 C1602.91275,932.68973 1701.42277,892.534123 1644.14959,882.781764 C1592.09941,873.918766 1454.91565,869.920446 1232.59832,870.786802 L1232.59832,870.786802 C1230.94148,870.793258 1229.59311,869.455357 1229.58665,867.798516 C1229.58286,866.826544 1230.05021,865.912972 1230.84061,865.347274 C1283.25756,827.831765 1325.79598,801.207545 1358.45587,785.474613 C1372.63996,778.641848 1388.20301,770.023523 1400.25613,764.786348 C1415.63699,758.10325 1426.98348,752.675091 1433.08948,750.212046 C1435.7182,749.151669 1438.12247,749.165182 1438.12247,749.165182 C1508.82847,749.250595 1699.04179,796.072956 2008.76242,889.632265 L2008.76242,889.632265 Z" id="Rectangle" fill="url(#linearGradient-8)" transform="translate(1798.958244, 936.331244) scale(-1, 1) rotate(-32.000000) translate(-1798.958244, -936.331244) "></path>
            <path d="M1038.10495,1907.06315 L1681.92717,2121.96825 C1940.46079,2188.41493 2069.7276,2238.14276 2069.7276,2271.15172 C2069.7276,2303.91987 1838.39486,2274.54354 1375.72937,2183.02273 L1375.72937,2183.02273 C1374.10402,2182.70122 1372.52576,2183.75819 1372.20425,2185.38355 C1372.00487,2186.39147 1372.33517,2187.43132 1373.07964,2188.13944 C1435.4281,2247.44323 1443.34637,2270.84164 1396.83446,2258.33467 C1353.85706,2246.77813 1128.75568,2164.10732 1122.712,2155.94681 C1116.22627,2147.18944 1108.50889,2135.70767 1104.97993,2128.48415 C1094.62138,2107.28101 1073.25175,2067.0407 1067.20864,2045.08979 C1062.91581,2029.4966 1051.63424,2005.56174 1047.39409,1993.72328 C1043.15395,1981.88482 1037.48721,1962.61327 1035.36916,1952.2804 C1033.82556,1944.74998 1027.95617,1923.97096 1029.92854,1918.28432 C1031.75159,1913.02822 1033.41915,1909.56519 1034.93125,1907.89522 C1035.73033,1907.01269 1036.97566,1906.68619 1038.10495,1907.06315 Z" id="Rectangle" fill="url(#linearGradient-9)" transform="translate(1549.627712, 2095.419583) scale(-1, 1) rotate(-32.000000) translate(-1549.627712, -2095.419583) "></path>
            <g id="Group-2" transform="translate(702.500000, 1274.500000) scale(-1, 1) translate(-702.500000, -1274.500000) translate(631.000000, 1222.000000)">
                <ellipse id="Oval" fill="#BE5A3C" cx="71.1748656" cy="37.3333333" rx="70.9186992" ry="37.3333333"></ellipse>
                <path d="M42.2985326,105 C81.4658487,105 142.093565,69.6186307 142.093565,49 C142.093565,28.3813693 110.342182,11.6666667 71.1748656,11.6666667 C32.0075496,11.6666667 0.25616646,28.3813693 0.25616646,49 C0.25616646,69.6186307 3.1312166,105 42.2985326,105 Z" id="Oval" fill="url(#linearGradient-10)"></path>
            </g>
            <g id="Group-2" transform="translate(1324.500000, 652.500000) scale(-1, 1) translate(-1324.500000, -652.500000) translate(1253.000000, 603.000000)">
                <ellipse id="Oval" fill="#DE785A" cx="71.1748656" cy="37.2705882" rx="70.9186992" ry="37.2705882"></ellipse>
                <path d="M42.0423662,99 C81.2096822,99 141.837398,63.6780951 141.837398,43.0941176 C141.837398,22.5101401 110.086015,5.82352941 70.9186992,5.82352941 C62.6235645,5.82352941 54.6610626,6.57198735 47.2623671,7.94741231 C19.7264828,13.066361 0,26.8695623 0,43.0941176 C0,63.6780951 2.87505014,99 42.0423662,99 Z" id="Oval" fill="url(#linearGradient-11)"></path>
            </g>
            <g id="Group-2" transform="translate(806.000000, 1934.500000) scale(-1, 1) translate(-806.000000, -1934.500000) translate(685.000000, 1852.000000)">
                <ellipse id="Oval" fill="#BE5A3C" cx="121" cy="63.8374676" rx="121" ry="63.8374676"></ellipse>
                <path d="M152.413462,165 C219.239916,165 242,114.005707 242,78.8774528 C242,43.7491983 187.826455,15.2721214 121,15.2721214 C54.1735453,15.2721214 0,43.7491983 0,78.8774528 C0,114.005707 85.5870068,165 152.413462,165 Z" id="Oval" fill="url(#linearGradient-12)"></path>
            </g>
            <g id="Group-2" transform="translate(1340.500000, 1475.500000) scale(-1, 1) translate(-1340.500000, -1475.500000) translate(1253.000000, 1429.000000)">
                <ellipse id="Oval" fill="#BE5A3C" cx="87.5" cy="46.5" rx="87.5" ry="46.5"></ellipse>
                <path d="M106.613462,93 C154.938378,93 175,86.0081411 175,60.3706977 C175,34.7332543 135.824916,13.95 87.5,13.95 C39.1750844,13.95 -1.05405015e-12,34.7332543 -1.05405015e-12,60.3706977 C-1.05405015e-12,86.0081411 58.2885467,93 106.613462,93 Z" id="Oval" fill="url(#linearGradient-13)"></path>
            </g>
            <g id="Group-2" transform="translate(1201.500000, 2298.000000) scale(-1, 1) translate(-1201.500000, -2298.000000) translate(1114.000000, 2251.000000)">
                <ellipse id="Oval" fill="#9F3B1C" cx="87.5" cy="46.4404762" rx="87.5" ry="46.4404762"></ellipse>
                <path d="M106.613462,94 C154.938378,94 175,78.8577411 175,53.2531157 C175,27.6484903 147.454718,12.5062314 99.129802,12.5062314 C50.8048863,12.5062314 -1.01376798e-12,35.8078405 -1.01376798e-12,61.4124659 C-1.01376798e-12,87.0170912 58.2885467,94 106.613462,94 Z" id="Oval" fill="url(#linearGradient-14)"></path>
            </g>
        </g>
    </g>
</svg>