<?xml version="1.0" encoding="UTF-8"?>
<svg width="1324px" height="540px" viewBox="0 0 1324 540" version="1.1" xmlns="http://www.w3.org/2000/svg" xmlns:xlink="http://www.w3.org/1999/xlink">
    <title>Meteor 1</title>
    <defs>
        <filter x="-6.7%" y="-95.0%" width="113.5%" height="289.9%" filterUnits="objectBoundingBox" id="filter-1">
            <feGaussianBlur stdDeviation="16" in="SourceGraphic"></feGaussianBlur>
        </filter>
        <filter x="-5.0%" y="-106.8%" width="109.9%" height="313.7%" filterUnits="objectBoundingBox" id="filter-2">
            <feGaussianBlur stdDeviation="18" in="SourceGraphic"></feGaussianBlur>
        </filter>
        <linearGradient x1="50%" y1="0%" x2="50%" y2="100%" id="linearGradient-3">
            <stop stop-color="#636370" offset="0%"></stop>
            <stop stop-color="#89898B" offset="100%"></stop>
        </linearGradient>
        <linearGradient x1="50%" y1="0%" x2="50%" y2="100%" id="linearGradient-4">
            <stop stop-color="#636370" offset="0%"></stop>
            <stop stop-color="#89898B" offset="100%"></stop>
        </linearGradient>
        <linearGradient x1="50%" y1="0%" x2="50%" y2="100%" id="linearGradient-5">
            <stop stop-color="#636370" offset="0%"></stop>
            <stop stop-color="#89898B" offset="100%"></stop>
        </linearGradient>
        <linearGradient x1="50%" y1="0%" x2="50%" y2="100%" id="linearGradient-6">
            <stop stop-color="#636370" offset="0%"></stop>
            <stop stop-color="#89898B" offset="100%"></stop>
        </linearGradient>
        <linearGradient x1="50%" y1="0%" x2="50%" y2="100%" id="linearGradient-7">
            <stop stop-color="#636370" offset="0%"></stop>
            <stop stop-color="#89898B" offset="100%"></stop>
        </linearGradient>
        <linearGradient x1="50%" y1="0%" x2="50%" y2="100%" id="linearGradient-8">
            <stop stop-color="#636370" offset="0%"></stop>
            <stop stop-color="#89898B" offset="100%"></stop>
        </linearGradient>
    </defs>
    <g id="Page-1" stroke="none" stroke-width="1" fill="none" fill-rule="evenodd">
        <g id="Sago_Mini_Mars_infographic" transform="translate(490.000000, -1021.000000)">
            <g id="Group-3" transform="translate(-421.000000, 869.000000)">
                <g id="Meteor-1" transform="translate(0.000000, 221.000000)">
                    <polygon id="Rectangle" fill="#FFFFFF" opacity="0.17078218" filter="url(#filter-1)" transform="translate(786.713652, 164.323338) rotate(19.000000) translate(-786.713652, -164.323338) " points="430.196487 139.060813 1143.23082 139.052032 1143.2302 189.594644"></polygon>
                    <polygon id="Rectangle" fill="#FFFFFF" opacity="0.17078218" filter="url(#filter-2)" transform="translate(521.615325, 200.953314) rotate(19.000000) translate(-521.615325, -200.953314) " points="-21.2808332 175.695379 1064.51148 175.682008 1064.51086 226.22462"></polygon>
                    <g id="Asteroid" transform="translate(917.540041, 198.256311)">
                        <path d="M210.640818,243.232794 C266.23584,243.232794 275.539993,220.699601 287.102392,208.663733 C302.949393,192.167812 309.279146,189.579516 309.279146,156.359626 C309.279146,131.163597 331.78536,127.850281 334.066841,101.951557 C335.32635,87.653964 343.553685,42.2245823 314.412912,31.5408421 C293.176945,23.7552026 272.512665,2.19656e-13 249.417676,2.19656e-13 C230.013504,2.19656e-13 190.128928,31.5408421 171.284266,31.5408421 C100.482553,31.5408421 86.1481325,30.0013213 53.557789,47.0767156 C48.7414414,49.6001942 45.8071414,53.8809426 39.8352842,57.2133506 C33.5033638,60.7466804 29.8842149,97.1427485 25.2177326,101.951557 C8.74211112,118.929681 0.295549239,130.145884 0.295549239,147.312128 C0.295549239,173.899801 -5.31230303,214.718469 32.3270938,233.110092 C76.0293408,254.464187 86.046132,233.110092 210.640818,243.232794 Z" id="Oval" fill="#4D4F63"></path>
                        <g id="Group-2" transform="translate(131.736297, 104.631437)">
                            <ellipse id="Oval" fill="#3F3F47" cx="22.6013028" cy="11.8899361" rx="22.5570339" ry="11.8899361"></ellipse>
                            <path d="M11.8097284,33.291821 C24.2676342,33.291821 45.1586776,22.0235472 45.1586776,15.4569169 C45.1586776,8.89028652 35.0592086,3.56698082 22.6013028,3.56698082 C10.143397,3.56698082 0.0442689335,8.89028652 0.0442689335,15.4569169 C0.0442689335,22.0235472 -0.64817739,33.291821 11.8097284,33.291821 Z" id="Oval" fill="url(#linearGradient-3)"></path>
                        </g>
                        <g id="Group-2" transform="translate(39.178006, 177.160047)">
                            <ellipse id="Oval" fill="#3F3F47" cx="13.0593354" cy="7.13396164" rx="13.0593354" ry="7.13396164"></ellipse>
                            <path d="M20.0708123,17.8349041 C27.2615945,17.8349041 26.0401257,13.1445872 26.0401257,9.31395693 C26.0401257,5.48332663 20.210845,2.37798721 13.0200628,2.37798721 C5.82928069,2.37798721 0,5.48332663 0,9.31395693 C0,13.1445872 12.8800302,17.8349041 20.0708123,17.8349041 Z" id="Oval" fill="url(#linearGradient-4)"></path>
                        </g>
                        <g id="Group-2" transform="translate(204.641182, 49.260687) scale(1, -1) translate(-204.641182, -49.260687) translate(191.141182, 40.260687)">
                            <ellipse id="Oval" fill="#3F3F47" cx="13.0593354" cy="7.13396164" rx="13.0593354" ry="7.13396164"></ellipse>
                            <path d="M20.0708123,17.8349041 C27.2615945,17.8349041 26.0401257,13.1445872 26.0401257,9.31395693 C26.0401257,5.48332663 20.210845,2.37798721 13.0200628,2.37798721 C5.82928069,2.37798721 0,5.48332663 0,9.31395693 C0,13.1445872 12.8800302,17.8349041 20.0708123,17.8349041 Z" id="Oval" fill="url(#linearGradient-4)"></path>
                        </g>
                        <g id="Group-2" transform="translate(217.577243, 208.341804) scale(1, -1) translate(-217.577243, -208.341804) translate(197.077243, 194.341804)">
                            <ellipse id="Oval" fill="#3F3F47" cx="20.1826092" cy="10.7009425" rx="20.1826092" ry="10.7009425"></ellipse>
                            <path d="M31.0185282,27.3468529 C42.1315551,27.3468529 40.2438306,20.1309808 40.2438306,14.2377035 C40.2438306,8.34442608 31.2349423,3.56698082 20.1219153,3.56698082 C9.00888835,3.56698082 0,8.34442608 0,14.2377035 C0,20.1309808 19.9055012,27.3468529 31.0185282,27.3468529 Z" id="Oval" fill="url(#linearGradient-5)"></path>
                        </g>
                        <g id="Group-2" transform="translate(263.561133, 151.002188)">
                            <ellipse id="Oval" fill="#3F3F47" cx="12.4657292" cy="6.53946484" rx="12.4657292" ry="6.53946484"></ellipse>
                            <path d="M19.1585027,15.4569169 C26.0224311,15.4569169 24.8564836,11.1273936 24.8564836,7.59142719 C24.8564836,4.05546076 19.2921702,1.18899361 12.4282418,1.18899361 C5.56431339,1.18899361 0,4.05546076 0,7.59142719 C0,11.1273936 12.2945743,15.4569169 19.1585027,15.4569169 Z" id="Oval" fill="url(#linearGradient-6)"></path>
                        </g>
                        <path d="M34.2042359,237.034284 C36.3042254,237.034284 46.8883701,240.244636 75.9815878,219.199379 C77.6672749,217.979998 114.642119,176.161996 116.346806,175.045089 C165.359306,142.932234 204.110901,125.521961 204.20112,116.945929 C204.440303,93.9989535 61.7350401,110.487642 61.7350401,106.509724 C61.7350401,100.101001 42.1615848,119.323917 27.080962,119.323917 C12.0003392,119.323917 3.56163693,163.756002 3.56163693,170.164725 C3.56163693,173.132277 2.20920295,214.778684 12.8089078,218.604883 C25.1003227,223.041741 26.1066769,237.034284 34.2042359,237.034284 Z" id="Oval" fill="#80808C" opacity="0.354515439" transform="translate(103.853429, 170.832860) scale(1, -1) translate(-103.853429, -170.832860) "></path>
                        <path d="M137.716628,166.459105 C152.797251,166.459105 165.022511,167.879263 165.022511,162.297627 C165.022511,156.715991 152.797251,152.191182 137.716628,152.191182 C122.636005,152.191182 110.410745,156.715991 110.410745,162.297627 C110.410745,167.879263 122.636005,166.459105 137.716628,166.459105 Z" id="Oval" fill="#4D4949"></path>
                        <path d="M296.803077,67.3499855 C311.8837,67.3499855 296.803077,56.1138641 296.803077,50.5322283 C296.803077,44.9505925 284.577817,40.4257826 269.497194,40.4257826 C254.416571,40.4257826 242.191311,44.9505925 242.191311,50.5322283 C242.191311,56.1138641 281.722454,67.3499855 296.803077,67.3499855 Z" id="Oval" fill="#4D4949"></path>
                        <path d="M251.689009,170.792429 C266.769632,170.792429 251.689009,157.891338 251.689009,151.482615 C251.689009,145.073892 239.463749,139.878595 224.383126,139.878595 C209.302504,139.878595 197.077243,145.073892 197.077243,151.482615 C197.077243,157.891338 236.608387,170.792429 251.689009,170.792429 Z" id="Oval" fill="#4D4949"></path>
                        <path d="M106.200627,231.037226 C108.422291,231.037226 168.298017,231.812387 199.423843,211.418831 C248.436343,179.305976 299.834531,95.7450307 299.924419,87.1689994 C300.028697,77.2617083 269.988137,40.4528624 239.789061,40.4257826 C200.041926,40.3922385 130.565529,82.2955011 130.565529,80.0350377 C130.565529,73.6263146 113.422397,109.759878 98.3417746,109.759878 C83.2611517,109.759878 36.8035816,176.474262 36.8035816,182.882985 C36.8035816,185.850536 50.1753628,216.510085 60.7750676,220.336283 C73.0664825,224.773142 98.1030676,231.037226 106.200627,231.037226 Z" id="Oval" fill="#5F5F66" opacity="0.422921317" transform="translate(168.364000, 135.733439) scale(1, -1) translate(-168.364000, -135.733439) "></path>
                        <path d="M242.399892,163.538085 C243.783238,163.538085 265.894472,167.374847 285.275335,154.654039 C315.793547,134.62313 329.335327,115.765982 329.391128,110.416545 C329.422276,107.503531 333.031007,92.2390193 329.391128,72.701289 C325.30916,50.790568 303.056407,6.38822818 293.116226,6.37946698 C268.367203,6.35811557 242.399892,74.1112893 242.399892,72.701289 C242.399892,68.7037451 192.220824,116.572838 182.830696,116.572838 C173.440568,116.572838 168.045049,130.034939 191.141182,138.169792 C192.91676,138.795181 202.381798,148.439419 208.981829,150.826072 C216.635224,153.593633 237.357851,163.538085 242.399892,163.538085 Z" id="Oval" fill="#424246" opacity="0.422921317" transform="translate(252.897291, 85.230361) scale(1, -1) translate(-252.897291, -85.230361) "></path>
                        <g id="Group-2" transform="translate(264.019920, 84.680906)">
                            <ellipse id="Oval" fill="#3F3F47" cx="22.5570339" cy="11.8899361" rx="22.5570339" ry="11.8899361"></ellipse>
                            <path d="M34.7723355,30.0638891 C47.2302413,30.0638891 45.1140677,22.0235472 45.1140677,15.4569169 C45.1140677,8.89028652 35.0149397,3.56698082 22.5570339,3.56698082 C10.0991281,3.56698082 0,8.89028652 0,15.4569169 C0,22.0235472 22.3144297,30.0638891 34.7723355,30.0638891 Z" id="Oval" fill="url(#linearGradient-7)"></path>
                        </g>
                        <path d="M64.1094647,153.380175 C79.1900875,153.380175 64.1094647,140.479084 64.1094647,134.070361 C64.1094647,127.661638 51.8842044,122.466341 36.8035816,122.466341 C21.7229588,122.466341 9.49769847,127.661638 9.49769847,134.070361 C9.49769847,140.479084 49.0288419,153.380175 64.1094647,153.380175 Z" id="Oval" fill="#525252" transform="translate(40.154831, 137.923258) scale(1, -1) translate(-40.154831, -137.923258) "></path>
                        <path d="M285.267325,200.939919 C295.195401,200.939919 285.267325,192.504591 285.267325,188.314272 C285.267325,184.123953 277.21903,180.727028 267.290955,180.727028 C257.36288,180.727028 249.314585,184.123953 249.314585,188.314272 C249.314585,192.504591 275.33925,200.939919 285.267325,200.939919 Z" id="Oval" fill="#4D4949" transform="translate(269.497194, 190.833474) scale(1, -1) translate(-269.497194, -190.833474) "></path>
                        <path d="M113.93862,86.7965333 C127.370722,86.7965333 113.93862,75.3840298 113.93862,69.7147747 C113.93862,64.0455196 103.04975,59.4496803 89.6176486,59.4496803 C76.1855469,59.4496803 65.296677,64.0455196 65.296677,69.7147747 C65.296677,75.3840298 100.506518,86.7965333 113.93862,86.7965333 Z" id="Oval" fill="#525252"></path>
                        <path d="M181.643483,87.9855269 C196.724106,87.9855269 208.949366,89.4056851 208.949366,83.8240493 C208.949366,78.2424134 196.724106,73.7176036 181.643483,73.7176036 C166.56286,73.7176036 154.3376,78.2424134 154.3376,83.8240493 C154.3376,89.4056851 166.56286,87.9855269 181.643483,87.9855269 Z" id="Oval" fill="#4D4949"></path>
                        <g id="Group-2" transform="translate(92.602560, 184.294009)">
                            <ellipse id="Oval" fill="#3F3F47" cx="22.5570339" cy="11.8899361" rx="22.5570339" ry="11.8899361"></ellipse>
                            <path d="M13.3723699,33.291821 C25.8302757,33.291821 45.1140677,22.0235472 45.1140677,15.4569169 C45.1140677,8.89028652 35.0149397,3.56698082 22.5570339,3.56698082 C10.0991281,3.56698082 0,8.89028652 0,15.4569169 C0,22.0235472 0.914464087,33.291821 13.3723699,33.291821 Z" id="Oval" fill="url(#linearGradient-8)"></path>
                        </g>
                    </g>
                </g>
            </g>
        </g>
    </g>
</svg>