<?xml version="1.0" encoding="UTF-8"?>
<svg width="1363px" height="292px" viewBox="0 0 1363 292" version="1.1" xmlns="http://www.w3.org/2000/svg" xmlns:xlink="http://www.w3.org/1999/xlink">
    <title>Meteor 5</title>
    <defs>
        <filter x="-6.1%" y="-85.7%" width="112.2%" height="271.4%" filterUnits="objectBoundingBox" id="filter-1">
            <feGaussianBlur stdDeviation="16" in="SourceGraphic"></feGaussianBlur>
        </filter>
        <filter x="-4.5%" y="-96.4%" width="109.0%" height="292.9%" filterUnits="objectBoundingBox" id="filter-2">
            <feGaussianBlur stdDeviation="18" in="SourceGraphic"></feGaussianBlur>
        </filter>
        <linearGradient x1="50%" y1="0%" x2="50%" y2="100%" id="linearGradient-3">
            <stop stop-color="#636370" offset="0%"></stop>
            <stop stop-color="#89898B" offset="100%"></stop>
        </linearGradient>
        <linearGradient x1="50%" y1="0%" x2="50%" y2="100%" id="linearGradient-4">
            <stop stop-color="#636370" offset="0%"></stop>
            <stop stop-color="#89898B" offset="100%"></stop>
        </linearGradient>
        <linearGradient x1="50%" y1="0%" x2="50%" y2="100%" id="linearGradient-5">
            <stop stop-color="#636370" offset="0%"></stop>
            <stop stop-color="#89898B" offset="100%"></stop>
        </linearGradient>
        <linearGradient x1="50%" y1="0%" x2="50%" y2="100%" id="linearGradient-6">
            <stop stop-color="#636370" offset="0%"></stop>
            <stop stop-color="#89898B" offset="100%"></stop>
        </linearGradient>
        <linearGradient x1="50%" y1="0%" x2="50%" y2="100%" id="linearGradient-7">
            <stop stop-color="#636370" offset="0%"></stop>
            <stop stop-color="#89898B" offset="100%"></stop>
        </linearGradient>
        <linearGradient x1="50%" y1="0%" x2="50%" y2="100%" id="linearGradient-8">
            <stop stop-color="#636370" offset="0%"></stop>
            <stop stop-color="#89898B" offset="100%"></stop>
        </linearGradient>
    </defs>
    <g id="Page-1" stroke="none" stroke-width="1" fill="none" fill-rule="evenodd">
        <g id="Sago_Mini_Mars_infographic" transform="translate(524.000000, -6095.000000)">
            <g id="Group-7" transform="translate(-470.000000, 5657.000000)">
                <g id="Meteor-5" transform="translate(0.000000, 454.000000)">
                    <polygon id="Rectangle" fill="#FFFFFF" opacity="0.17078218" filter="url(#filter-1)" points="471 32 1261 32 1261 88"></polygon>
                    <polygon id="Rectangle" fill="#FFFFFF" opacity="0.17078218" filter="url(#filter-2)" points="0 166 1203 166 1203 222"></polygon>
                    <g id="Asteroid" transform="translate(1157.500000, 102.000000) scale(1, -1) translate(-1157.500000, -102.000000) translate(1017.000000, 0.000000)">
                        <path d="M176.113697,204 C222.59588,204 230.374945,185.101351 240.042097,175.006836 C253.291543,161.171662 258.583757,159.000851 258.583757,131.13924 C258.583757,110.007263 277.400872,107.228375 279.308384,85.507046 C280.361442,73.515616 287.240196,35.4138711 262.876023,26.4533893 C245.120942,19.9235525 227.843841,0 208.534459,0 C192.310916,0 158.964007,26.4533893 143.208262,26.4533893 C84.011988,26.4533893 72.0271897,25.1621891 44.7788815,39.4833683 C40.752004,41.5998166 38.2986788,45.1900919 33.3056966,47.9849914 C28.0116709,50.9484047 24.9857536,81.4738852 21.0841763,85.507046 C7.30915085,99.746644 0.247104383,109.153704 0.247104383,123.551079 C0.247104383,145.850232 -4.44153862,180.084959 27.0282089,195.510063 C63.5670163,213.4198 71.9419085,195.510063 176.113697,204 Z" id="Oval" fill="#4D4F63"></path>
                        <g id="Group-2" transform="translate(110.000000, 87.000000)">
                            <ellipse id="Oval" fill="#3F3F47" cx="18.7859155" cy="10.0439024" rx="18.7491197" ry="10.0439024"></ellipse>
                            <path d="M9.81609609,28.1229268 C20.170949,28.1229268 37.5353186,18.6041673 37.5353186,13.0570732 C37.5353186,7.50997903 29.1407684,3.01317073 18.7859155,3.01317073 C8.4310626,3.01317073 0.0367957746,7.50997903 0.0367957746,13.0570732 C0.0367957746,18.6041673 -0.538756804,28.1229268 9.81609609,28.1229268 Z" id="Oval" fill="url(#linearGradient-3)"></path>
                        </g>
                        <g id="Group-2" transform="translate(33.000000, 148.000000)">
                            <ellipse id="Oval" fill="#3F3F47" cx="10.9292713" cy="5.8445122" rx="10.9292713" ry="5.8445122"></ellipse>
                            <path d="M16.7971299,14.6112805 C22.8150478,14.6112805 21.7928087,10.7687291 21.7928087,7.63047765 C21.7928087,4.4922262 16.9143223,1.94817073 10.8964043,1.94817073 C4.8784864,1.94817073 0,4.4922262 0,7.63047765 C0,10.7687291 10.7792119,14.6112805 16.7971299,14.6112805 Z" id="Oval" fill="url(#linearGradient-4)"></path>
                        </g>
                        <g id="Group-2" transform="translate(171.000000, 41.500000) scale(1, -1) translate(-171.000000, -41.500000) translate(160.000000, 34.000000)">
                            <ellipse id="Oval" fill="#3F3F47" cx="10.9292713" cy="5.8445122" rx="10.9292713" ry="5.8445122"></ellipse>
                            <path d="M16.7971299,14.6112805 C22.8150478,14.6112805 21.7928087,10.7687291 21.7928087,7.63047765 C21.7928087,4.4922262 16.9143223,1.94817073 10.8964043,1.94817073 C4.8784864,1.94817073 0,4.4922262 0,7.63047765 C0,10.7687291 10.7792119,14.6112805 16.7971299,14.6112805 Z" id="Oval" fill="url(#linearGradient-4)"></path>
                        </g>
                        <g id="Group-2" transform="translate(182.000000, 174.500000) scale(1, -1) translate(-182.000000, -174.500000) translate(165.000000, 163.000000)">
                            <ellipse id="Oval" fill="#3F3F47" cx="16.6774257" cy="8.96158537" rx="16.6774257" ry="8.96158537"></ellipse>
                            <path d="M25.631433,22.9018293 C34.8144222,22.9018293 33.2545453,16.8588425 33.2545453,11.9234727 C33.2545453,6.98810286 25.8102618,2.98719512 16.6272726,2.98719512 C7.44428353,2.98719512 0,6.98810286 0,11.9234727 C0,16.8588425 16.4484439,22.9018293 25.631433,22.9018293 Z" id="Oval" fill="url(#linearGradient-5)"></path>
                        </g>
                        <g id="Group-2" transform="translate(220.000000, 127.000000)">
                            <ellipse id="Oval" fill="#3F3F47" cx="10.4109315" cy="5.30644599" rx="10.4109315" ry="5.30644599"></ellipse>
                            <path d="M16.0004967,12.5425087 C21.7330043,12.5425087 20.7592467,9.02931888 20.7592467,6.1600604 C20.7592467,3.29080193 16.112131,0.964808362 10.3796233,0.964808362 C4.64711566,0.964808362 0,3.29080193 0,6.1600604 C0,9.02931888 10.267989,12.5425087 16.0004967,12.5425087 Z" id="Oval" fill="url(#linearGradient-6)"></path>
                        </g>
                        <path d="M28.697391,197.853309 C30.4552701,197.853309 39.3151467,200.537596 63.6687741,182.940926 C65.0798452,181.921359 96.0310994,146.955875 97.4580752,146.021991 C138.485925,119.171318 170.924479,104.613983 171,97.4432657 C171.200218,78.2565025 51.7431384,92.0432672 51.7431384,88.7171918 C51.7431384,83.3586359 35.3584043,99.4315834 22.7345731,99.4315834 C10.1107419,99.4315834 3.04679271,136.582793 3.04679271,141.941349 C3.04679271,144.422622 1.91468442,179.244629 10.7875862,182.443847 C21.0766007,186.153658 21.9190093,197.853309 28.697391,197.853309 Z" id="Oval" fill="#80808C" opacity="0.354515439" transform="translate(87.000000, 142.500000) scale(1, -1) translate(-87.000000, -142.500000) "></path>
                        <path d="M115,138.865669 C127.702549,138.865669 138,140.046719 138,135.404849 C138,130.762979 127.702549,127 115,127 C102.297451,127 92,130.762979 92,135.404849 C92,140.046719 102.297451,138.865669 115,138.865669 Z" id="Oval" fill="#4D4949"></path>
                        <path d="M248.424993,57 C260.968759,57 248.424993,47.4015434 248.424993,42.6334311 C248.424993,37.8653188 238.256262,34 225.712497,34 C213.168731,34 203,37.8653188 203,42.6334311 C203,47.4015434 235.881228,57 248.424993,57 Z" id="Oval" fill="#4D4949"></path>
                        <path d="M210.424993,143 C222.968759,143 210.424993,132.149571 210.424993,126.759531 C210.424993,121.369491 200.256262,117 187.712497,117 C175.168731,117 165,121.369491 165,126.759531 C165,132.149571 197.881228,143 210.424993,143 Z" id="Oval" fill="#4D4949"></path>
                        <path d="M89.0241004,193.996752 C90.8816737,193.996752 140.94483,194.647412 166.969685,177.529329 C207.949906,150.574218 250.924843,80.4342533 251,73.2356448 C251.087188,64.9195943 225.969744,34.0227304 200.71976,34 C167.486476,33.9718435 109.396027,69.144894 109.396027,67.2474907 C109.396027,61.8680923 95.0623511,92.1981327 82.4531748,92.1981327 C69.8439986,92.1981327 31,148.197314 31,153.576712 C31,156.067636 42.1803835,181.80286 51.0429847,185.014521 C61.3200547,188.738762 82.2535877,193.996752 89.0241004,193.996752 Z" id="Oval" fill="#5F5F66" opacity="0.422921317" transform="translate(141.000000, 114.000000) scale(1, -1) translate(-141.000000, -114.000000) "></path>
                        <path d="M202.698249,136.545355 C203.858143,136.545355 222.397742,139.756812 238.648009,129.109205 C264.236606,112.342877 275.590978,96.5590125 275.637765,92.0814113 C275.663882,89.6431527 278.689693,76.8664072 275.637765,60.5128805 C272.215159,42.1731064 253.556899,5.00733332 245.222359,5 C224.471053,4.98212838 202.698249,61.693083 202.698249,60.5128805 C202.698249,57.1668449 160.62462,97.2343693 152.751282,97.2343693 C144.877944,97.2343693 140.353966,108.502456 159.719373,115.311513 C161.208142,115.834978 169.144289,123.907426 174.678216,125.905109 C181.095355,128.221621 198.470651,136.545355 202.698249,136.545355 Z" id="Oval" fill="#424246" opacity="0.422921317" transform="translate(211.500000, 71.000000) scale(1, -1) translate(-211.500000, -71.000000) "></path>
                        <g id="Group-2" transform="translate(221.000000, 71.000000)">
                            <ellipse id="Oval" fill="#3F3F47" cx="18.7491197" cy="10.0054201" rx="18.7491197" ry="10.0054201"></ellipse>
                            <path d="M28.9023231,25.2988609 C39.257176,25.2988609 37.4982394,18.532887 37.4982394,13.0070461 C37.4982394,7.48120516 29.1039726,3.00162602 18.7491197,3.00162602 C8.39426683,3.00162602 0,7.48120516 0,13.0070461 C0,18.532887 18.5474702,25.2988609 28.9023231,25.2988609 Z" id="Oval" fill="url(#linearGradient-7)"></path>
                        </g>
                        <path d="M53.4249931,128 C65.9687586,128 53.4249931,117.149571 53.4249931,111.759531 C53.4249931,106.369491 43.256262,102 30.7124966,102 C18.1687311,102 8,106.369491 8,111.759531 C8,117.149571 40.8812276,128 53.4249931,128 Z" id="Oval" fill="#525252" transform="translate(33.500000, 115.000000) scale(1, -1) translate(-33.500000, -115.000000) "></path>
                        <path d="M238.283329,168 C246.645839,168 238.283329,160.905489 238.283329,157.381232 C238.283329,153.856975 231.504175,151 223.141664,151 C214.779154,151 208,153.856975 208,157.381232 C208,160.905489 229.920818,168 238.283329,168 Z" id="Oval" fill="#4D4949" transform="translate(225.000000, 159.500000) scale(1, -1) translate(-225.000000, -159.500000) "></path>
                        <path d="M94.9715624,73 C106.285547,73 94.9715624,63.4015434 94.9715624,58.6334311 C94.9715624,53.8653188 85.7997658,50 74.4857812,50 C63.1717967,50 54,53.8653188 54,58.6334311 C54,63.4015434 83.6575779,73 94.9715624,73 Z" id="Oval" fill="#525252"></path>
                        <path d="M152,73.8656691 C164.702549,73.8656691 175,75.0467188 175,70.4048489 C175,65.762979 164.702549,62 152,62 C139.297451,62 129,65.762979 129,70.4048489 C129,75.0467188 139.297451,73.8656691 152,73.8656691 Z" id="Oval" fill="#4D4949"></path>
                        <g id="Group-2" transform="translate(78.000000, 154.000000)">
                            <ellipse id="Oval" fill="#3F3F47" cx="18.7491197" cy="10.0439024" rx="18.7491197" ry="10.0439024"></ellipse>
                            <path d="M11.1149438,28.1229268 C21.4697967,28.1229268 37.4982394,18.6041673 37.4982394,13.0570732 C37.4982394,7.50997903 29.1039726,3.01317073 18.7491197,3.01317073 C8.39426683,3.01317073 0,7.50997903 0,13.0570732 C0,18.6041673 0.760090921,28.1229268 11.1149438,28.1229268 Z" id="Oval" fill="url(#linearGradient-8)"></path>
                        </g>
                    </g>
                </g>
            </g>
        </g>
    </g>
</svg>