<?xml version="1.0" encoding="UTF-8"?>
<svg width="1441px" height="239px" viewBox="0 0 1441 239" version="1.1" xmlns="http://www.w3.org/2000/svg" xmlns:xlink="http://www.w3.org/1999/xlink">
    <title>Meteor 8</title>
    <defs>
        <filter x="-5.9%" y="-82.8%" width="111.7%" height="265.5%" filterUnits="objectBoundingBox" id="filter-1">
            <feGaussianBlur stdDeviation="16" in="SourceGraphic"></feGaussianBlur>
        </filter>
        <filter x="-4.3%" y="-93.1%" width="108.6%" height="286.2%" filterUnits="objectBoundingBox" id="filter-2">
            <feGaussianBlur stdDeviation="18" in="SourceGraphic"></feGaussianBlur>
        </filter>
        <linearGradient x1="50%" y1="0%" x2="50%" y2="100%" id="linearGradient-3">
            <stop stop-color="#636370" offset="0%"></stop>
            <stop stop-color="#89898B" offset="100%"></stop>
        </linearGradient>
        <linearGradient x1="50%" y1="0%" x2="50%" y2="100%" id="linearGradient-4">
            <stop stop-color="#636370" offset="0%"></stop>
            <stop stop-color="#89898B" offset="100%"></stop>
        </linearGradient>
        <linearGradient x1="50%" y1="0%" x2="50%" y2="100%" id="linearGradient-5">
            <stop stop-color="#636370" offset="0%"></stop>
            <stop stop-color="#89898B" offset="100%"></stop>
        </linearGradient>
        <linearGradient x1="50%" y1="0%" x2="50%" y2="100%" id="linearGradient-6">
            <stop stop-color="#636370" offset="0%"></stop>
            <stop stop-color="#89898B" offset="100%"></stop>
        </linearGradient>
        <linearGradient x1="50%" y1="0%" x2="50%" y2="100%" id="linearGradient-7">
            <stop stop-color="#636370" offset="0%"></stop>
            <stop stop-color="#89898B" offset="100%"></stop>
        </linearGradient>
        <linearGradient x1="50%" y1="0%" x2="50%" y2="100%" id="linearGradient-8">
            <stop stop-color="#636370" offset="0%"></stop>
            <stop stop-color="#89898B" offset="100%"></stop>
        </linearGradient>
    </defs>
    <g id="Page-1" stroke="none" stroke-width="1" fill="none" fill-rule="evenodd">
        <g id="Sago_Mini_Mars_infographic" transform="translate(-522.000000, -9751.000000)">
            <g id="Group-10" transform="translate(522.000000, 9419.000000)">
                <g id="Meteor-8" transform="translate(693.500000, 444.000000) scale(-1, 1) translate(-693.500000, -444.000000) translate(0.000000, 344.000000)">
                    <polygon id="Rectangle" fill="#FFFFFF" opacity="0.183082217" filter="url(#filter-1)" points="371 121 1191 121 1191 179"></polygon>
                    <polygon id="Rectangle" fill="#FFFFFF" opacity="0.183082217" filter="url(#filter-2)" points="0 42 1249 42 1249 100"></polygon>
                    <g id="Asteroid" transform="translate(1249.000000, 100.000000) scale(1, -1) translate(-1249.000000, -100.000000) translate(1111.000000, 0.000000)">
                        <path d="M172.980001,200 C218.635099,200 226.275747,181.471913 235.770886,171.575329 C248.784576,158.011434 253.982622,155.883188 253.982622,128.567882 C253.982622,107.850258 272.464913,105.125858 274.338484,83.8304373 C275.372804,72.0741333 282.12916,34.7194815 258.198514,25.9346954 C240.75936,19.5328946 223.78968,0 204.823882,0 C188.889013,0 156.135466,25.9346954 140.660072,25.9346954 C82.5171128,25.9346954 70.7455671,24.6688128 43.9821043,38.7091846 C40.0268794,40.7841339 37.6172077,44.3040117 32.7130686,47.0441092 C27.5132426,49.9494164 24.5411673,79.876358 20.709013,83.8304373 C7.17909478,97.7908275 0.242707508,107.013435 0.242707508,121.128509 C0.242707508,142.990424 -4.36250769,176.553882 26.5472799,191.676532 C62.4359306,209.235098 70.6618034,191.676532 172.980001,200 Z" id="Oval" fill="#4D4F63"></path>
                        <g id="Group-2" transform="translate(108.046512, 85.561497)">
                            <ellipse id="Oval" fill="#3F3F47" cx="18.5099902" cy="9.63088561" rx="18.4737349" ry="9.63088561"></ellipse>
                            <path d="M9.67191842,26.9664797 C19.8746805,26.9664797 36.9840042,17.8391425 36.9840042,12.5201513 C36.9840042,7.20116005 28.7127522,2.88926568 18.5099902,2.88926568 C8.30722814,2.88926568 0.0362553226,7.20116005 0.0362553226,12.5201513 C0.0362553226,17.8391425 -0.530843608,26.9664797 9.67191842,26.9664797 Z" id="Oval" fill="url(#linearGradient-3)"></path>
                        </g>
                        <g id="Group-2" transform="translate(32.093023, 145.454545)">
                            <ellipse id="Oval" fill="#3F3F47" cx="10.6288896" cy="5.83409417" rx="10.6288896" ry="5.83409417"></ellipse>
                            <path d="M16.3354752,14.5852354 C22.1879958,14.5852354 21.193852,10.7495335 21.193852,7.61687609 C21.193852,4.48421866 16.4494466,1.94469806 10.596926,1.94469806 C4.74440537,1.94469806 0,4.48421866 0,7.61687609 C0,10.7495335 10.4829545,14.5852354 16.3354752,14.5852354 Z" id="Oval" fill="url(#linearGradient-4)"></path>
                        </g>
                        <g id="Group-2" transform="translate(168.255814, 40.628342) scale(1, -1) translate(-168.255814, -40.628342) translate(157.255814, 33.128342)">
                            <ellipse id="Oval" fill="#3F3F47" cx="10.6288896" cy="5.83409417" rx="10.6288896" ry="5.83409417"></ellipse>
                            <path d="M16.3354752,14.5852354 C22.1879958,14.5852354 21.193852,10.7495335 21.193852,7.61687609 C21.193852,4.48421866 16.4494466,1.94469806 10.596926,1.94469806 C4.74440537,1.94469806 0,4.48421866 0,7.61687609 C0,10.7495335 10.4829545,14.5852354 16.3354752,14.5852354 Z" id="Oval" fill="url(#linearGradient-4)"></path>
                        </g>
                        <g id="Group-2" transform="translate(178.534884, 171.387701) scale(1, -1) translate(-178.534884, -171.387701) translate(161.534884, 159.887701)">
                            <ellipse id="Oval" fill="#3F3F47" cx="16.7914983" cy="8.75114125" rx="16.7914983" ry="8.75114125"></ellipse>
                            <path d="M25.8067506,22.3640277 C35.0525509,22.3640277 33.4820046,16.4629478 33.4820046,11.6434748 C33.4820046,6.82400186 25.9868025,2.91704708 16.7410023,2.91704708 C7.49520203,2.91704708 0,6.82400186 0,11.6434748 C0,16.4629478 16.5609504,22.3640277 25.8067506,22.3640277 Z" id="Oval" fill="url(#linearGradient-5)"></path>
                        </g>
                        <g id="Group-2" transform="translate(217.162791, 124.064171)">
                            <ellipse id="Oval" fill="#3F3F47" cx="10.0765826" cy="5.23877844" rx="10.0765826" ry="5.23877844"></ellipse>
                            <path d="M15.486638,12.3825672 C21.0350452,12.3825672 20.0925599,8.91417742 20.0925599,6.0815076 C20.0925599,3.24883778 15.5946872,0.952505171 10.0462799,0.952505171 C4.49787274,0.952505171 0,3.24883778 0,6.0815076 C0,8.91417742 9.93823075,12.3825672 15.486638,12.3825672 Z" id="Oval" fill="url(#linearGradient-6)"></path>
                        </g>
                        <path d="M28.4086818,194.508238 C30.1324936,194.508238 38.8206671,197.146358 62.702325,179.852334 C64.0860497,178.850302 94.4374735,144.48619 95.8367947,143.568368 C136.069531,117.1795 167.879431,102.872537 167.953488,95.8251491 C168.149826,76.9683794 51.0078063,90.5180253 51.0078063,87.2491552 C51.0078063,81.9827611 34.9406058,97.7792697 22.5614225,97.7792697 C10.1822391,97.7792697 3.2551882,134.291515 3.2551882,139.557909 C3.2551882,141.996506 2.14501999,176.21961 10.8459663,179.363804 C20.9355813,183.00981 21.7616641,194.508238 28.4086818,194.508238 Z" id="Oval" fill="#80808C" opacity="0.354515439" transform="translate(85.581395, 140.106952) scale(1, -1) translate(-85.581395, -140.106952) "></path>
                        <path d="M113.395349,136.766699 C125.80249,136.766699 135.860465,137.924591 135.860465,133.373738 C135.860465,128.822885 125.80249,125.13369 113.395349,125.13369 C100.988208,125.13369 90.9302326,128.822885 90.9302326,133.373738 C90.9302326,137.924591 100.988208,136.766699 113.395349,136.766699 Z" id="Oval" fill="#4D4949"></path>
                        <path d="M243.759615,55.6149733 C256.126063,55.6149733 243.759615,46.2419164 243.759615,41.5857732 C243.759615,36.92963 233.734628,33.1550802 221.368179,33.1550802 C209.001731,33.1550802 198.976744,36.92963 198.976744,41.5857732 C198.976744,46.2419164 231.393167,55.6149733 243.759615,55.6149733 Z" id="Oval" fill="#4D4949"></path>
                        <path d="M206.317754,140.106952 C218.684203,140.106952 206.317754,129.394887 206.317754,124.07358 C206.317754,118.752274 196.292767,114.438503 183.926319,114.438503 C171.559871,114.438503 161.534884,118.752274 161.534884,124.07358 C161.534884,129.394887 193.951306,140.106952 206.317754,140.106952 Z" id="Oval" fill="#4D4949"></path>
                        <path d="M86.9471396,189.301643 C88.7717243,189.301643 137.94581,189.936646 163.50849,173.230494 C203.760943,146.924036 245.972689,78.4719317 246.046512,71.4465517 C246.132152,63.3306201 221.460767,33.1772636 196.659198,33.1550802 C164.016103,33.1276013 106.957282,67.4542415 106.957282,65.6024976 C106.957282,60.35255 92.8781571,89.9527231 80.492907,89.9527231 C68.1076569,89.9527231 29.9534884,144.60433 29.9534884,149.854278 C29.9534884,152.28526 40.9353196,177.401187 49.64053,180.535562 C59.7350897,184.170182 80.2968644,189.301643 86.9471396,189.301643 Z" id="Oval" fill="#5F5F66" opacity="0.422921317" transform="translate(138.000000, 111.229947) scale(1, -1) translate(-138.000000, -111.229947) "></path>
                        <path d="M198.909699,134.313628 C200.046325,134.313628 218.214013,137.462115 234.138294,127.023285 C259.213574,110.585708 270.340174,95.1113313 270.386022,90.7215263 C270.411615,88.3310766 273.376728,75.8048555 270.386022,59.7719863 C267.032075,41.7918155 248.748106,5.35478311 240.58076,5.34759358 C220.245733,5.33007239 198.909699,60.9290475 198.909699,59.7719863 C198.909699,56.4915592 157.680082,95.7734458 149.964686,95.7734458 C142.24929,95.7734458 137.816064,106.820589 156.792995,113.496136 C158.251898,114.009337 166.028844,121.923501 171.451758,123.882014 C177.740167,126.153104 194.766908,134.313628 198.909699,134.313628 Z" id="Oval" fill="#424246" opacity="0.422921317" transform="translate(207.534884, 70.053476) scale(1, -1) translate(-207.534884, -70.053476) "></path>
                        <g id="Group-2" transform="translate(217.162791, 69.518717)">
                            <ellipse id="Oval" fill="#3F3F47" cx="18.4737349" cy="9.8778314" rx="18.4737349" ry="9.8778314"></ellipse>
                            <path d="M28.4778092,24.976251 C38.6805712,24.976251 36.9474697,18.2965565 36.9474697,12.8411808 C36.9474697,7.38580518 28.6764969,2.96334942 18.4737349,2.96334942 C8.27097282,2.96334942 0,7.38580518 0,12.8411808 C0,18.2965565 18.2750472,24.976251 28.4778092,24.976251 Z" id="Oval" fill="url(#linearGradient-7)"></path>
                        </g>
                        <path d="M52.2712426,126.203209 C64.6376909,126.203209 52.2712426,115.491144 52.2712426,110.169837 C52.2712426,104.848531 42.2462556,100.534759 29.8798074,100.534759 C17.5133591,100.534759 7.48837209,104.848531 7.48837209,110.169837 C7.48837209,115.491144 39.9047944,126.203209 52.2712426,126.203209 Z" id="Oval" fill="#525252" transform="translate(32.627907, 113.368984) scale(1, -1) translate(-32.627907, -113.368984) "></path>
                        <path d="M234.932987,164.705882 C243.08958,164.705882 234.932987,157.564506 234.932987,154.016968 C234.932987,150.46943 228.320761,147.593583 220.164168,147.593583 C212.007574,147.593583 205.395349,150.46943 205.395349,154.016968 C205.395349,157.564506 226.776393,164.705882 234.932987,164.705882 Z" id="Oval" fill="#4D4949" transform="translate(221.976744, 156.149733) scale(1, -1) translate(-221.976744, -156.149733) "></path>
                        <path d="M93.5071075,71.657754 C104.557976,71.657754 93.5071075,62.2846971 93.5071075,57.628554 C93.5071075,52.9724108 84.5486084,49.197861 73.4977398,49.197861 C62.4468712,49.197861 53.4883721,52.9724108 53.4883721,57.628554 C53.4883721,62.2846971 82.4562389,71.657754 93.5071075,71.657754 Z" id="Oval" fill="#525252"></path>
                        <path d="M149.767442,72.5955757 C162.174583,72.5955757 172.232558,73.7534676 172.232558,69.2026148 C172.232558,64.651762 162.174583,60.9625668 149.767442,60.9625668 C137.360301,60.9625668 127.302326,64.651762 127.302326,69.2026148 C127.302326,73.7534676 137.360301,72.5955757 149.767442,72.5955757 Z" id="Oval" fill="#4D4949"></path>
                        <g id="Group-2" transform="translate(75.953488, 151.871658)">
                            <ellipse id="Oval" fill="#3F3F47" cx="18.4737349" cy="9.63088561" rx="18.4737349" ry="9.63088561"></ellipse>
                            <path d="M10.9516888,26.9664797 C21.1544509,26.9664797 36.9474697,17.8391425 36.9474697,12.5201513 C36.9474697,7.20116005 28.6764969,2.88926568 18.4737349,2.88926568 C8.27097282,2.88926568 0,7.20116005 0,12.5201513 C0,17.8391425 0.748926795,26.9664797 10.9516888,26.9664797 Z" id="Oval" fill="url(#linearGradient-8)"></path>
                        </g>
                    </g>
                </g>
            </g>
        </g>
    </g>
</svg>