<?xml version="1.0" encoding="UTF-8"?>
<svg width="1427px" height="283px" viewBox="0 0 1427 283" version="1.1" xmlns="http://www.w3.org/2000/svg" xmlns:xlink="http://www.w3.org/1999/xlink">
    <title>Meteor 4</title>
    <defs>
        <filter x="-6.2%" y="-88.9%" width="112.5%" height="277.8%" filterUnits="objectBoundingBox" id="filter-1">
            <feGaussianBlur stdDeviation="16" in="SourceGraphic"></feGaussianBlur>
        </filter>
        <filter x="-4.6%" y="-100.0%" width="109.2%" height="300.0%" filterUnits="objectBoundingBox" id="filter-2">
            <feGaussianBlur stdDeviation="18" in="SourceGraphic"></feGaussianBlur>
        </filter>
        <linearGradient x1="50%" y1="0%" x2="50%" y2="100%" id="linearGradient-3">
            <stop stop-color="#636370" offset="0%"></stop>
            <stop stop-color="#89898B" offset="100%"></stop>
        </linearGradient>
        <linearGradient x1="50%" y1="0%" x2="50%" y2="100%" id="linearGradient-4">
            <stop stop-color="#636370" offset="0%"></stop>
            <stop stop-color="#89898B" offset="100%"></stop>
        </linearGradient>
        <linearGradient x1="50%" y1="0%" x2="50%" y2="100%" id="linearGradient-5">
            <stop stop-color="#636370" offset="0%"></stop>
            <stop stop-color="#89898B" offset="100%"></stop>
        </linearGradient>
        <linearGradient x1="50%" y1="0%" x2="50%" y2="100%" id="linearGradient-6">
            <stop stop-color="#636370" offset="0%"></stop>
            <stop stop-color="#89898B" offset="100%"></stop>
        </linearGradient>
        <linearGradient x1="50%" y1="0%" x2="50%" y2="100%" id="linearGradient-7">
            <stop stop-color="#636370" offset="0%"></stop>
            <stop stop-color="#89898B" offset="100%"></stop>
        </linearGradient>
        <linearGradient x1="50%" y1="0%" x2="50%" y2="100%" id="linearGradient-8">
            <stop stop-color="#636370" offset="0%"></stop>
            <stop stop-color="#89898B" offset="100%"></stop>
        </linearGradient>
    </defs>
    <g id="Page-1" stroke="none" stroke-width="1" fill="none" fill-rule="evenodd">
        <g id="Sago_Mini_Mars_infographic" transform="translate(-507.000000, -4767.000000)">
            <g id="Group-4" transform="translate(507.000000, 4401.000000)">
                <g id="Meteor-4" transform="translate(686.500000, 482.120370) scale(-1, -1) translate(-686.500000, -482.120370) translate(0.000000, 366.620370)">
                    <polygon id="Rectangle" fill="#FFFFFF" opacity="0.183082217" filter="url(#filter-1)" points="347 77 1115 77 1115 131"></polygon>
                    <polygon id="Rectangle" fill="#FFFFFF" opacity="0.183082217" filter="url(#filter-2)" points="0 3 1169 3 1169 57"></polygon>
                    <g id="Asteroid" transform="translate(1192.000000, 115.500000) scale(1, -1) translate(-1192.000000, -115.500000) translate(1011.000000, 0.000000)">
                        <path d="M226.778786,230.450838 C286.633148,230.450838 296.650126,206.229919 309.098363,193.292569 C326.159461,175.561109 332.97416,172.77895 332.97416,137.070903 C332.97416,109.987702 357.204658,106.426218 359.660931,78.5876905 C361.016936,63.219213 369.874598,14.3871877 338.501243,2.90323933 C315.63831,-5.46554164 280.498184,16.2878049 255.633803,16.2878049 C234.743006,16.2878049 204.695405,2.90323933 184.406984,2.90323933 C108.180891,2.90323933 92.7482581,1.24840898 57.6610483,19.6027439 C52.4757026,22.3152301 49.3165951,26.916605 42.8872119,30.498609 C36.0701799,34.2965839 32.1737546,73.4187038 27.149756,78.5876905 C9.41187644,96.8374691 0.318192355,108.893762 0.318192355,127.345751 C0.318192355,155.924831 -5.71929812,199.800802 34.8037915,219.56995 C81.8542284,242.523459 92.638443,219.56995 226.778786,230.450838 Z" id="Oval" fill="#4D4F63"></path>
                        <g id="Group-2" transform="translate(141.829100, 81.468293)">
                            <ellipse id="Oval" fill="#3F3F47" cx="24.3328718" cy="12.7804878" rx="24.2852113" ry="12.7804878"></ellipse>
                            <path d="M12.7145152,35.7853659 C26.126867,35.7853659 48.6184501,23.6731027 48.6184501,16.6146341 C48.6184501,9.55616564 37.7452236,3.83414634 24.3328718,3.83414634 C10.92052,3.83414634 0.0476605395,9.55616564 0.0476605395,16.6146341 C0.0476605395,23.6731027 -0.697836646,35.7853659 12.7145152,35.7853659 Z" id="Oval" fill="url(#linearGradient-3)"></path>
                        </g>
                        <g id="Group-2" transform="translate(42.179577, 159.429268)">
                            <ellipse id="Oval" fill="#3F3F47" cx="14.0598592" cy="7.66829268" rx="14.0598592" ry="7.66829268"></ellipse>
                            <path d="M21.6085112,19.1707317 C29.3502056,19.1707317 28.0351556,14.1291119 28.0351556,10.0115688 C28.0351556,5.89402573 21.7592722,2.55609756 14.0175778,2.55609756 C6.27588335,2.55609756 0,5.89402573 0,10.0115688 C0,14.1291119 13.8668167,19.1707317 21.6085112,19.1707317 Z" id="Oval" fill="url(#linearGradient-4)"></path>
                        </g>
                        <g id="Group-2" transform="translate(219.936059, 21.784015) scale(1, -1) translate(-219.936059, -21.784015) translate(205.785211, 11.943639)">
                            <ellipse id="Oval" fill="#3F3F47" cx="14.0598592" cy="7.66829268" rx="14.0598592" ry="7.66829268"></ellipse>
                            <path d="M21.6085112,19.1707317 C29.3502056,19.1707317 28.0351556,14.1291119 28.0351556,10.0115688 C28.0351556,5.89402573 21.7592722,2.55609756 14.0175778,2.55609756 C6.27588335,2.55609756 0,5.89402573 0,10.0115688 C0,14.1291119 13.8668167,19.1707317 21.6085112,19.1707317 Z" id="Oval" fill="url(#linearGradient-4)"></path>
                        </g>
                        <g id="Group-2" transform="translate(234.325209, 193.234559) scale(1, -1) translate(-234.325209, -193.234559) translate(212.176056, 178.473995)">
                            <ellipse id="Oval" fill="#3F3F47" cx="21.7288732" cy="11.502439" rx="21.7288732" ry="11.502439"></ellipse>
                            <path d="M33.3949718,29.395122 C45.3594087,29.395122 43.3270586,21.6387837 43.3270586,15.3041021 C43.3270586,8.96942045 33.6279662,3.83414634 21.6635293,3.83414634 C9.69909245,3.83414634 0,8.96942045 0,15.3041021 C0,21.6387837 21.4305349,29.395122 33.3949718,29.395122 Z" id="Oval" fill="url(#linearGradient-5)"></path>
                        </g>
                        <g id="Group-2" transform="translate(283.753521, 131.312195)">
                            <ellipse id="Oval" fill="#3F3F47" cx="13.4207746" cy="7.02926829" rx="13.4207746" ry="7.02926829"></ellipse>
                            <path d="M20.6263061,16.6146341 C28.0161053,16.6146341 26.7608303,11.9608312 26.7608303,8.16002223 C26.7608303,4.35921325 20.7702144,1.27804878 13.3804152,1.27804878 C5.99061592,1.27804878 0,4.35921325 0,8.16002223 C0,11.9608312 13.2365069,16.6146341 20.6263061,16.6146341 Z" id="Oval" fill="url(#linearGradient-6)"></path>
                        </g>
                        <path d="M39.6232394,228.514633 C41.9291283,228.514633 61.3758634,225.688647 70.4812724,206.048339 C70.9316545,205.076868 80.7325046,207.140109 81.4101563,193.267851 C82.4687855,171.596574 74.530198,130.736432 75.8161106,130.004437 C136.45479,95.4863408 106.225549,92.1695063 106.336422,82.9511335 C106.633088,58.2854378 75.8161106,82.803889 75.8161106,78.5280265 C75.8161106,71.6392924 51.5996663,92.3019975 32.9417921,92.3019975 C14.283918,92.3019975 3.84348418,140.06203 3.84348418,146.950764 C3.84348418,150.140584 2.17024142,194.906292 15.2842859,199.019071 C30.4913284,203.788248 29.604871,228.514633 39.6232394,228.514633 Z" id="Oval" fill="#80808C" opacity="0.354515439" transform="translate(58.774325, 150.148560) scale(1, -1) translate(-58.774325, -150.148560) "></path>
                        <path d="M148.267606,147.926829 C164.50361,147.926829 177.665493,149.453357 177.665493,143.453659 C177.665493,137.45396 164.50361,132.590244 148.267606,132.590244 C132.031601,132.590244 118.869718,137.45396 118.869718,143.453659 C118.869718,149.453357 132.031601,147.926829 148.267606,147.926829 Z" id="Oval" fill="#4D4949"></path>
                        <path d="M319.542254,41.3944741 C335.778258,41.3944741 319.542254,29.3167714 319.542254,23.3170732 C319.542254,17.3173749 306.380371,12.4536585 290.144366,12.4536585 C273.908361,12.4536585 260.746479,17.3173749 260.746479,23.3170732 C260.746479,29.3167714 303.306249,41.3944741 319.542254,41.3944741 Z" id="Oval" fill="#4D4949"></path>
                        <path d="M270.971831,152.584718 C287.207836,152.584718 270.971831,138.71734 270.971831,131.828606 C270.971831,124.939872 257.809949,119.35545 241.573944,119.35545 C225.337939,119.35545 212.176056,124.939872 212.176056,131.828606 C212.176056,138.71734 254.735826,152.584718 270.971831,152.584718 Z" id="Oval" fill="#4D4949"></path>
                        <path d="M114.337048,218.143413 C116.728922,218.143413 147.409109,204.922255 180.919599,183.00123 C197.253258,172.3165 200.354752,197.754111 219.936059,182.362206 C263.614133,148.029013 322.83636,69.8644283 322.902733,63.4995103 C323.015,52.8501669 290.672922,13.2843522 258.160184,13.2562176 C215.367874,13.2191877 104,15.6859888 104,13.2562176 C104,6.36748352 112.38834,45.6109862 82.0117188,71.1719618 C69.0625844,82.068253 93.8722423,106.365565 87.1054687,123.571962 C77.9984618,146.729051 39.6232394,162.430275 39.6232394,166.382437 C39.6232394,169.572257 54.019482,202.528195 65.4312693,206.640974 C78.6643747,211.410151 105.619105,218.143413 114.337048,218.143413 Z" id="Oval" fill="#5F5F66" opacity="0.422921317" transform="translate(181.262986, 115.300615) scale(1, -1) translate(-181.262986, -115.300615) "></path>
                        <path d="M260.97104,117.435521 C262.460369,117.435521 312.602094,150.789863 333.467797,137.116272 C366.324122,115.585055 354.566919,121.268555 354.626994,115.518447 C354.660529,112.387251 358.545738,95.9794321 354.626994,74.9783332 C350.232292,51.4265075 326.274674,3.69844909 315.57294,3.68864765 C288.927802,3.66608106 260.97104,76.493942 260.97104,74.9783332 C260.97104,70.6813748 176.54881,115.518447 166.43927,115.518447 C161.468188,115.518447 134.11297,126.549237 141.8291,132.772106 C149.805033,139.2045 193.146563,140.905942 205.785211,145.350402 C207.696823,146.022633 227.219525,130.206694 234.325209,132.772106 C242.564958,135.746957 255.54271,117.435521 260.97104,117.435521 Z" id="Oval" fill="#424246" opacity="0.422921317" transform="translate(248.545658, 74.529955) scale(1, -1) translate(-248.545658, -74.529955) "></path>
                        <g id="Group-2" transform="translate(284.247458, 60.023474)">
                            <ellipse id="Oval" fill="#3F3F47" cx="24.2852113" cy="12.7804878" rx="24.2852113" ry="12.7804878"></ellipse>
                            <path d="M37.4363721,32.3156631 C50.848724,32.3156631 48.5704225,23.6731027 48.5704225,16.6146341 C48.5704225,9.55616564 37.6975631,3.83414634 24.2852113,3.83414634 C10.8728594,3.83414634 0,9.55616564 0,16.6146341 C0,23.6731027 24.0240203,32.3156631 37.4363721,32.3156631 Z" id="Oval" fill="url(#linearGradient-7)"></path>
                        </g>
                        <path d="M69.0211268,133.868293 C85.2571316,133.868293 69.0211268,120.000915 69.0211268,113.112181 C69.0211268,106.223447 55.8592443,100.639024 39.6232394,100.639024 C23.3872346,100.639024 10.2253521,106.223447 10.2253521,113.112181 C10.2253521,120.000915 52.7851219,133.868293 69.0211268,133.868293 Z" id="Oval" fill="#525252" transform="translate(43.231241, 117.253659) scale(1, -1) translate(-43.231241, -117.253659) "></path>
                        <path d="M307.122705,184.990244 C317.811407,184.990244 307.122705,175.923112 307.122705,171.41894 C307.122705,166.914768 298.457801,163.263415 287.769099,163.263415 C277.080398,163.263415 268.415493,166.914768 268.415493,171.41894 C268.415493,175.923112 296.434004,184.990244 307.122705,184.990244 Z" id="Oval" fill="#4D4949" transform="translate(290.144366, 174.126829) scale(1, -1) translate(-290.144366, -174.126829) "></path>
                        <path d="M122.667877,62.297561 C137.129062,62.297561 122.667877,50.0302652 122.667877,43.9363851 C122.667877,37.8425049 110.944771,32.902439 96.4835865,32.902439 C82.0224021,32.902439 70.2992958,37.8425049 70.2992958,43.9363851 C70.2992958,50.0302652 108.206693,62.297561 122.667877,62.297561 Z" id="Oval" fill="#525252"></path>
                        <path d="M195.559859,63.5756098 C211.795864,63.5756098 224.957746,65.1021373 224.957746,59.102439 C224.957746,53.1027408 211.795864,48.2390244 195.559859,48.2390244 C179.323854,48.2390244 166.161972,53.1027408 166.161972,59.102439 C166.161972,65.1021373 179.323854,63.5756098 195.559859,63.5756098 Z" id="Oval" fill="#4D4949"></path>
                        <g id="Group-2" transform="translate(99.697183, 167.097561)">
                            <ellipse id="Oval" fill="#3F3F47" cx="24.2852113" cy="12.7804878" rx="24.2852113" ry="12.7804878"></ellipse>
                            <path d="M14.3968764,35.7853659 C27.8092282,35.7853659 48.5704225,23.6731027 48.5704225,16.6146341 C48.5704225,9.55616564 37.6975631,3.83414634 24.2852113,3.83414634 C10.8728594,3.83414634 0,9.55616564 0,16.6146341 C0,23.6731027 0.984524547,35.7853659 14.3968764,35.7853659 Z" id="Oval" fill="url(#linearGradient-8)"></path>
                        </g>
                    </g>
                </g>
            </g>
        </g>
    </g>
</svg>