<?xml version="1.0" encoding="UTF-8"?>
<svg width="1526px" height="292px" viewBox="0 0 1526 292" version="1.1" xmlns="http://www.w3.org/2000/svg" xmlns:xlink="http://www.w3.org/1999/xlink">
    <title>Meteor 7</title>
    <defs>
        <filter x="-6.1%" y="-85.7%" width="112.2%" height="271.4%" filterUnits="objectBoundingBox" id="filter-1">
            <feGaussianBlur stdDeviation="16" in="SourceGraphic"></feGaussianBlur>
        </filter>
        <filter x="-4.5%" y="-96.4%" width="109.0%" height="292.9%" filterUnits="objectBoundingBox" id="filter-2">
            <feGaussianBlur stdDeviation="18" in="SourceGraphic"></feGaussianBlur>
        </filter>
        <linearGradient x1="50%" y1="0%" x2="50%" y2="100%" id="linearGradient-3">
            <stop stop-color="#636370" offset="0%"></stop>
            <stop stop-color="#89898B" offset="100%"></stop>
        </linearGradient>
        <linearGradient x1="50%" y1="0%" x2="50%" y2="100%" id="linearGradient-4">
            <stop stop-color="#636370" offset="0%"></stop>
            <stop stop-color="#89898B" offset="100%"></stop>
        </linearGradient>
        <linearGradient x1="50%" y1="0%" x2="50%" y2="100%" id="linearGradient-5">
            <stop stop-color="#636370" offset="0%"></stop>
            <stop stop-color="#89898B" offset="100%"></stop>
        </linearGradient>
        <linearGradient x1="50%" y1="0%" x2="50%" y2="100%" id="linearGradient-6">
            <stop stop-color="#636370" offset="0%"></stop>
            <stop stop-color="#89898B" offset="100%"></stop>
        </linearGradient>
        <linearGradient x1="50%" y1="0%" x2="50%" y2="100%" id="linearGradient-7">
            <stop stop-color="#636370" offset="0%"></stop>
            <stop stop-color="#89898B" offset="100%"></stop>
        </linearGradient>
        <linearGradient x1="50%" y1="0%" x2="50%" y2="100%" id="linearGradient-8">
            <stop stop-color="#636370" offset="0%"></stop>
            <stop stop-color="#89898B" offset="100%"></stop>
        </linearGradient>
        <linearGradient x1="50%" y1="0%" x2="50%" y2="100%" id="linearGradient-9">
            <stop stop-color="#636370" offset="0%"></stop>
            <stop stop-color="#89898B" offset="100%"></stop>
        </linearGradient>
    </defs>
    <g id="Page-1" stroke="none" stroke-width="1" fill="none" fill-rule="evenodd">
        <g id="Sago_Mini_Mars_infographic" transform="translate(571.000000, -8507.000000)">
            <g id="Group-9" transform="translate(-517.000000, 8171.000000)">
                <g id="Meteor-7" transform="translate(736.000000, 477.000000) scale(1, -1) translate(-736.000000, -477.000000) translate(0.000000, 342.000000)">
                    <polygon id="Rectangle" fill="#FFFFFF" opacity="0.17078218" filter="url(#filter-1)" points="471 32 1261 32 1261 88"></polygon>
                    <polygon id="Rectangle" fill="#FFFFFF" opacity="0.17078218" filter="url(#filter-2)" points="0 166 1203 166 1203 222"></polygon>
                    <g id="Asteroid" transform="translate(1244.500000, 135.000000) scale(1, -1) translate(-1244.500000, -135.000000) translate(1017.000000, 0.000000)">
                        <path d="M233.026135,269.43407 C294.529378,269.43407 304.822306,244.47358 317.613469,231.141197 C335.14457,212.868319 455,171.515404 455,134.717035 C455,106.806865 446.476061,103.293552 449,74.6049924 C450.393361,58.7672483 380.063981,46.773056 347.826346,34.9384527 C324.33358,26.3141365 301.473257,2.55795385e-13 275.923906,2.55795385e-13 C254.457605,2.55795385e-13 210.334397,34.9384527 189.487066,34.9384527 C111.161081,34.9384527 95.3033065,33.2330932 59.2495069,52.1478659 C53.9213143,54.943176 50.675179,59.6850509 44.0686778,63.3764291 C37.0638487,67.2903728 33.060084,107.607061 27.8976831,112.93388 C9.67115678,131.740903 0.326957984,144.165327 0.326957984,163.180736 C0.326957984,192.632459 -5.87685454,237.848155 35.7625736,258.220941 C84.1091659,281.87532 95.1904662,258.220941 233.026135,269.43407 Z" id="Oval" fill="#4D4F63"></path>
                        <g id="Group-2" transform="translate(145.736238, 115.902439)">
                            <ellipse id="Oval" fill="#3F3F47" cx="25.0031989" cy="13.1707317" rx="24.9542254" ry="13.1707317"></ellipse>
                            <path d="M13.0647773,36.8780488 C26.8466154,36.8780488 49.9578014,24.3959455 49.9578014,17.1219512 C49.9578014,9.84795695 38.785037,3.95121951 25.0031989,3.95121951 C11.2213607,3.95121951 0.048973502,9.84795695 0.048973502,17.1219512 C0.048973502,24.3959455 -0.717060796,36.8780488 13.0647773,36.8780488 Z" id="Oval" fill="url(#linearGradient-3)"></path>
                        </g>
                        <g id="Group-2" transform="translate(43.341549, 196.243902)">
                            <ellipse id="Oval" fill="#3F3F47" cx="14.4471831" cy="7.90243902" rx="14.4471831" ry="7.90243902"></ellipse>
                            <path d="M22.2037869,19.7560976 C30.1587512,19.7560976 28.8074739,14.5605351 28.8074739,10.3172656 C28.8074739,6.07399598 22.3587012,2.63414634 14.403737,2.63414634 C6.4487727,2.63414634 0,6.07399598 0,10.3172656 C0,14.5605351 14.2488227,19.7560976 22.2037869,19.7560976 Z" id="Oval" fill="url(#linearGradient-4)"></path>
                        </g>
                        <g id="Group-2" transform="translate(225.994903, 54.395740) scale(1, -1) translate(-225.994903, -54.395740) translate(211.454225, 44.254895)">
                            <ellipse id="Oval" fill="#3F3F47" cx="14.4471831" cy="7.90243902" rx="14.4471831" ry="7.90243902"></ellipse>
                            <path d="M22.2037869,19.7560976 C30.1587512,19.7560976 28.8074739,14.5605351 28.8074739,10.3172656 C28.8074739,6.07399598 22.3587012,2.63414634 14.403737,2.63414634 C6.4487727,2.63414634 0,6.07399598 0,10.3172656 C0,14.5605351 14.2488227,19.7560976 22.2037869,19.7560976 Z" id="Oval" fill="url(#linearGradient-4)"></path>
                        </g>
                        <g id="Group-2" transform="translate(240.780449, 231.081415) scale(1, -1) translate(-240.780449, -231.081415) translate(218.021127, 215.870148)">
                            <ellipse id="Oval" fill="#3F3F47" cx="22.3274648" cy="11.8536585" rx="22.3274648" ry="11.8536585"></ellipse>
                            <path d="M34.3149435,30.2926829 C46.6089791,30.2926829 44.5206415,22.29951 44.5206415,15.7714029 C44.5206415,9.24329588 34.5543564,3.95121951 22.2603208,3.95121951 C9.96628507,3.95121951 0,9.24329588 0,15.7714029 C0,22.29951 22.0209078,30.2926829 34.3149435,30.2926829 Z" id="Oval" fill="url(#linearGradient-5)"></path>
                        </g>
                        <g id="Group-2" transform="translate(291.570423, 167.268293)">
                            <ellipse id="Oval" fill="#3F3F47" cx="13.790493" cy="7.24390244" rx="13.790493" ry="7.24390244"></ellipse>
                            <path d="M21.1945239,17.1219512 C28.7878989,17.1219512 27.4980433,12.3260474 27.4980433,8.40918322 C27.4980433,4.49231899 21.3423966,1.31707317 13.7490216,1.31707317 C6.15564666,1.31707317 0,4.49231899 0,8.40918322 C0,12.3260474 13.6011489,17.1219512 21.1945239,17.1219512 Z" id="Oval" fill="url(#linearGradient-6)"></path>
                        </g>
                        <path d="M37.8392042,262.56785 C40.1623647,262.56785 51.8713126,266.124025 84.056338,242.811753 C85.9211673,241.461019 126.825419,195.13834 128.711268,193.901119 C182.932447,158.329036 225.802269,139.04331 225.902075,129.54346 C226.166677,104.124614 68.2957746,122.389479 68.2957746,117.983056 C68.2957746,110.883979 46.6422002,132.177607 29.9589225,132.177607 C13.2756448,132.177607 3.94014085,181.39596 3.94014085,188.495037 C3.94014085,191.782256 2.44398038,237.914856 14.1701419,242.153216 C27.7677957,247.068018 28.8810977,262.56785 37.8392042,262.56785 Z" id="Oval" fill="#80808C" opacity="0.354515439" transform="translate(114.890188, 189.235145) scale(1, -1) translate(-114.890188, -189.235145) "></path>
                        <path d="M152.352113,184.390244 C169.03539,184.390244 182.559859,185.963383 182.559859,179.780488 C182.559859,173.597593 169.03539,168.585366 152.352113,168.585366 C135.668835,168.585366 122.144366,173.597593 122.144366,179.780488 C122.144366,185.963383 135.668835,184.390244 152.352113,184.390244 Z" id="Oval" fill="#4D4949"></path>
                        <path d="M328.34507,74.6049924 C345.028348,74.6049924 328.34507,62.1585049 328.34507,55.9756098 C328.34507,49.7927146 314.820602,44.7804878 298.137324,44.7804878 C281.454046,44.7804878 267.929577,49.7927146 267.929577,55.9756098 C267.929577,62.1585049 311.661793,74.6049924 328.34507,74.6049924 Z" id="Oval" fill="#4D4949"></path>
                        <path d="M278.43662,189.190358 C295.119897,189.190358 278.43662,174.899549 278.43662,167.800472 C278.43662,160.701395 264.912151,154.946456 248.228873,154.946456 C231.545596,154.946456 218.021127,160.701395 218.021127,167.800472 C218.021127,174.899549 261.753342,189.190358 278.43662,189.190358 Z" id="Oval" fill="#4D4949"></path>
                        <path d="M117.486828,255.925238 C119.944595,255.925238 186.183461,256.7839 220.617105,234.193531 C274.838284,198.621448 331.698684,106.059234 331.798722,96.5593846 C331.913485,85.5848704 298.680441,44.8109393 265.272035,44.7804878 C221.300874,44.743785 117.486828,134.628609 117.486828,132.124646 C117.486828,125.025569 105.831715,173.604794 89.1484375,173.604794 C72.4651598,173.604794 40.7147887,195.484698 40.7147887,202.583775 C40.7147887,205.870994 55.507622,239.83322 67.2337836,244.07158 C80.8314373,248.986381 108.528722,255.925238 117.486828,255.925238 Z" id="Oval" fill="#5F5F66" opacity="0.422921317" transform="translate(186.256756, 150.355006) scale(1, -1) translate(-186.256756, -150.355006) "></path>
                        <path d="M268.160325,203.544722 C269.690682,203.544722 294.151731,207.794783 315.592247,193.703678 C349.353704,171.51502 435.18827,141.138756 435.25,135.213072 C435.284459,131.986266 452.526698,103.782255 448.5,82.1399011 C443.984232,57.8689356 353.650785,7.07628341 342.654237,7.06666946 C315.275074,7.04292705 268.160325,104.484783 268.160325,102.922896 C268.160325,98.4947332 212.648603,151.520332 202.260563,151.520332 C191.872523,151.520332 185.90361,166.432584 211.454225,175.443731 C213.418499,176.136488 223.889409,186.819612 231.190842,189.463358 C239.657582,192.529044 262.582454,203.544722 268.160325,203.544722 Z" id="Oval" fill="#424246" opacity="0.422921317" transform="translate(321.231225, 105.606536) scale(1, -1) translate(-321.231225, -105.606536) "></path>
                        <g id="Group-2" transform="translate(292.077966, 93.802817)">
                            <ellipse id="Oval" fill="#3F3F47" cx="24.9542254" cy="13.1707317" rx="24.9542254" ry="13.1707317"></ellipse>
                            <path d="M38.4676772,33.3024009 C52.2495153,33.3024009 49.9084507,24.3959455 49.9084507,17.1219512 C49.9084507,9.84795695 38.7360635,3.95121951 24.9542254,3.95121951 C11.1723872,3.95121951 0,9.84795695 0,17.1219512 C0,24.3959455 24.6858391,33.3024009 38.4676772,33.3024009 Z" id="Oval" fill="url(#linearGradient-7)"></path>
                        </g>
                        <g id="Group-2" transform="translate(409.000000, 87.500000) scale(-1, 1) translate(-409.000000, -87.500000) translate(394.000000, 77.000000)">
                            <ellipse id="Oval" fill="#3F3F47" cx="15" cy="8.27464789" rx="15" ry="7.5"></ellipse>
                            <path d="M23.0534078,20.7746479 C31.3127663,20.7746479 29.9097828,15.6160909 29.9097828,11.403044 C29.9097828,7.18999718 23.2142499,3.77464789 14.9548914,3.77464789 C6.69553295,3.77464789 0,7.18999718 0,11.403044 C0,15.6160909 14.7940494,20.7746479 23.0534078,20.7746479 Z" id="Oval" fill="url(#linearGradient-8)"></path>
                        </g>
                        <path d="M70.9225352,169.902439 C87.6058129,169.902439 70.9225352,155.61163 70.9225352,148.512553 C70.9225352,141.413476 57.3980664,135.658537 40.7147887,135.658537 C24.031511,135.658537 10.5070423,141.413476 10.5070423,148.512553 C10.5070423,155.61163 54.2392575,169.902439 70.9225352,169.902439 Z" id="Oval" fill="#525252" transform="translate(44.422184, 152.780488) scale(1, -1) translate(-44.422184, -152.780488) "></path>
                        <path d="M315.583386,222.585366 C326.566542,222.585366 315.583386,213.241375 315.583386,208.599671 C315.583386,203.957967 306.679779,200.195122 295.696623,200.195122 C284.713466,200.195122 275.809859,203.957967 275.809859,208.599671 C275.809859,213.241375 304.60023,222.585366 315.583386,222.585366 Z" id="Oval" fill="#4D4949" transform="translate(298.137324, 211.390244) scale(1, -1) translate(-298.137324, -211.390244) "></path>
                        <path d="M126.047158,96.1463415 C140.906722,96.1463415 126.047158,83.5044718 126.047158,77.224519 C126.047158,70.9445662 114.001101,65.8536585 99.1415366,65.8536585 C84.2819724,65.8536585 72.2359155,70.9445662 72.2359155,77.224519 C72.2359155,83.5044718 111.187593,96.1463415 126.047158,96.1463415 Z" id="Oval" fill="#525252"></path>
                        <path d="M200.947183,97.4634146 C217.630461,97.4634146 231.15493,99.0365537 231.15493,92.8536585 C231.15493,86.6707634 217.630461,81.6585366 200.947183,81.6585366 C184.263905,81.6585366 170.739437,86.6707634 170.739437,92.8536585 C170.739437,99.0365537 184.263905,97.4634146 200.947183,97.4634146 Z" id="Oval" fill="#4D4949"></path>
                        <g id="Group-2" transform="translate(102.443662, 204.146341)">
                            <ellipse id="Oval" fill="#3F3F47" cx="24.9542254" cy="13.1707317" rx="24.9542254" ry="13.1707317"></ellipse>
                            <path d="M14.7934845,36.8780488 C28.5753226,36.8780488 49.9084507,24.3959455 49.9084507,17.1219512 C49.9084507,9.84795695 38.7360635,3.95121951 24.9542254,3.95121951 C11.1723872,3.95121951 0,9.84795695 0,17.1219512 C0,24.3959455 1.01164644,36.8780488 14.7934845,36.8780488 Z" id="Oval" fill="url(#linearGradient-9)"></path>
                        </g>
                    </g>
                </g>
            </g>
        </g>
    </g>
</svg>