<?xml version="1.0" encoding="UTF-8"?>
<svg width="1273px" height="649px" viewBox="0 0 1273 649" version="1.1" xmlns="http://www.w3.org/2000/svg" xmlns:xlink="http://www.w3.org/1999/xlink">
    <title>Meteor 3</title>
    <defs>
        <filter x="-6.9%" y="-97.6%" width="113.8%" height="295.1%" filterUnits="objectBoundingBox" id="filter-1">
            <feGaussianBlur stdDeviation="16" in="SourceGraphic"></feGaussianBlur>
        </filter>
        <filter x="-5.1%" y="-109.7%" width="110.2%" height="319.4%" filterUnits="objectBoundingBox" id="filter-2">
            <feGaussianBlur stdDeviation="18" in="SourceGraphic"></feGaussianBlur>
        </filter>
        <linearGradient x1="50%" y1="0%" x2="50%" y2="100%" id="linearGradient-3">
            <stop stop-color="#636370" offset="0%"></stop>
            <stop stop-color="#89898B" offset="100%"></stop>
        </linearGradient>
        <linearGradient x1="50%" y1="0%" x2="50%" y2="100%" id="linearGradient-4">
            <stop stop-color="#636370" offset="0%"></stop>
            <stop stop-color="#89898B" offset="100%"></stop>
        </linearGradient>
        <linearGradient x1="50%" y1="0%" x2="50%" y2="100%" id="linearGradient-5">
            <stop stop-color="#636370" offset="0%"></stop>
            <stop stop-color="#89898B" offset="100%"></stop>
        </linearGradient>
        <linearGradient x1="50%" y1="0%" x2="50%" y2="100%" id="linearGradient-6">
            <stop stop-color="#636370" offset="0%"></stop>
            <stop stop-color="#89898B" offset="100%"></stop>
        </linearGradient>
        <linearGradient x1="50%" y1="0%" x2="50%" y2="100%" id="linearGradient-7">
            <stop stop-color="#636370" offset="0%"></stop>
            <stop stop-color="#89898B" offset="100%"></stop>
        </linearGradient>
        <linearGradient x1="50%" y1="0%" x2="50%" y2="100%" id="linearGradient-8">
            <stop stop-color="#636370" offset="0%"></stop>
            <stop stop-color="#89898B" offset="100%"></stop>
        </linearGradient>
    </defs>
    <g id="Page-1" stroke="none" stroke-width="1" fill="none" fill-rule="evenodd">
        <g id="Sago_Mini_Mars_infographic" transform="translate(369.000000, -3542.000000)">
            <g id="Group-5" transform="translate(-300.000000, 3144.000000)">
                <g id="Meteor-3" transform="translate(0.000000, 427.000000)">
                    <polygon id="Rectangle" fill="#FFFFFF" opacity="0.17078218" filter="url(#filter-1)" transform="translate(688.691395, 169.043339) rotate(-19.000000) translate(-688.691395, -169.043339) " points="342.031882 144.445112 1035.34657 144.506314 1035.35091 193.641566"></polygon>
                    <polygon id="Rectangle" fill="#FFFFFF" opacity="0.17078218" filter="url(#filter-2)" transform="translate(507.490700, 355.762381) rotate(-19.000000) translate(-507.490700, -355.762381) " points="-20.3960065 331.148156 1035.37307 331.241354 1035.37741 380.376606"></polygon>
                    <g id="Asteroid" transform="translate(993.500000, 152.500000) scale(1, -1) translate(-993.500000, -152.500000) translate(783.000000, 0.000000)">
                        <path d="M263.857176,305 C333.497741,305 345.152498,276.744667 359.636025,261.652377 C379.486617,240.967436 387.415522,237.721861 387.415522,196.066021 C387.415522,164.471643 415.607712,160.316933 418.465586,127.841417 C420.043299,109.913053 430.34919,52.9472092 393.846283,39.5504105 C367.245255,29.7876643 341.360346,0 312.430631,0 C288.124184,0 238.163157,39.5504105 214.557573,39.5504105 C125.868494,39.5504105 107.912622,37.6199396 67.0886446,59.0315066 C61.0554936,62.1958043 57.3798711,67.5636178 49.8992822,71.7422666 C41.9676636,76.17286 37.4341718,121.811446 31.5887481,127.841417 C10.9507207,149.131012 0.370216887,163.195489 0.370216887,184.720976 C0.370216887,218.060396 -6.65440484,269.244669 40.4942204,292.306712 C95.2374159,319.083524 107.784852,292.306712 263.857176,305 Z" id="Oval" fill="#4D4F63"></path>
                        <g id="Group-2" transform="translate(165.768750, 131.465517)">
                            <ellipse id="Oval" fill="#3F3F47" cx="28.1840229" cy="14.8737735" rx="28.1288191" ry="14.8737735"></ellipse>
                            <path d="M14.7268349,41.6465657 C30.2619528,41.6465657 56.3132672,27.5504638 56.3132672,19.3359055 C56.3132672,11.1213473 43.7191407,4.46213204 28.1840229,4.46213204 C12.648905,4.46213204 0.0552037485,11.1213473 0.0552037485,19.3359055 C0.0552037485,27.5504638 -0.808282892,41.6465657 14.7268349,41.6465657 Z" id="Oval" fill="url(#linearGradient-3)"></path>
                        </g>
                        <g id="Group-2" transform="translate(49.116667, 222.614943)">
                            <ellipse id="Oval" fill="#3F3F47" cx="16.557432" cy="8.87873213" rx="16.557432" ry="8.87873213"></ellipse>
                            <path d="M25.4470155,22.1968303 C34.5639333,22.1968303 33.0152797,16.3593912 33.0152797,11.5918942 C33.0152797,6.82439727 25.6245576,2.95957738 16.5076398,2.95957738 C7.3907221,2.95957738 0,6.82439727 0,11.5918942 C0,16.3593912 16.3300978,22.1968303 25.4470155,22.1968303 Z" id="Oval" fill="url(#linearGradient-4)"></path>
                        </g>
                        <g id="Group-2" transform="translate(256.443750, 61.244253) scale(1, -1) translate(-256.443750, -61.244253) translate(239.443750, 49.744253)">
                            <ellipse id="Oval" fill="#3F3F47" cx="16.557432" cy="8.87873213" rx="16.557432" ry="8.87873213"></ellipse>
                            <path d="M25.4470155,22.1968303 C34.5639333,22.1968303 33.0152797,16.3593912 33.0152797,11.5918942 C33.0152797,6.82439727 25.6245576,2.95957738 16.5076398,2.95957738 C7.3907221,2.95957738 0,6.82439727 0,11.5918942 C0,16.3593912 16.3300978,22.1968303 25.4470155,22.1968303 Z" id="Oval" fill="url(#linearGradient-4)"></path>
                        </g>
                        <g id="Group-2" transform="translate(272.837500, 261.206897) scale(1, -1) translate(-272.837500, -261.206897) translate(247.337500, 243.706897)">
                            <ellipse id="Oval" fill="#3F3F47" cx="25.383001" cy="13.3180982" rx="25.383001" ry="13.3180982"></ellipse>
                            <path d="M39.0109783,34.0351398 C52.9874652,34.0351398 50.6133364,25.0544642 50.6133364,17.7198535 C50.6133364,10.3852428 39.2831551,4.43936606 25.3066682,4.43936606 C11.3301813,4.43936606 0,10.3852428 0,17.7198535 C0,25.0544642 25.0344913,34.0351398 39.0109783,34.0351398 Z" id="Oval" fill="url(#linearGradient-5)"></path>
                        </g>
                        <g id="Group-2" transform="translate(330.660417, 189.310345)">
                            <ellipse id="Oval" fill="#3F3F47" cx="15.6535791" cy="8.22827556" rx="15.6535791" ry="8.22827556"></ellipse>
                            <path d="M24.0578896,19.4486513 C32.6771244,19.4486513 31.2130102,14.0010327 31.2130102,9.55190622 C31.2130102,5.10277974 24.2257398,1.4960501 15.6065051,1.4960501 C6.98727033,1.4960501 0,5.10277974 0,9.55190622 C0,14.0010327 15.4386549,19.4486513 24.0578896,19.4486513 Z" id="Oval" fill="url(#linearGradient-6)"></path>
                        </g>
                        <path d="M42.8891203,294.0086 C45.5230397,294.0086 79.2847255,308.520695 115.775,282.122046 C117.889279,280.592484 181.011743,220.559323 183.838037,219.927289 C259.178125,203.079242 255.995176,154.130302 256.109834,143.372741 C256.40833,114.588622 77.419732,135.271625 77.419732,130.281823 C77.419732,122.242879 52.8696543,146.355629 33.954728,146.355629 C15.0398017,146.355629 4.45552856,202.090137 4.45552856,210.129081 C4.45552856,213.851504 2.75923331,266.091727 16.0539518,270.891216 C31.4705038,276.456701 32.7327273,294.0086 42.8891203,294.0086 Z" id="Oval" fill="#80808C" opacity="0.354515439" transform="translate(130.247626, 212.847092) scale(1, -1) translate(-130.247626, -212.847092) "></path>
                        <path d="M131.5625,212.768106 C150.45409,212.768106 165.76875,214.579558 165.76875,207.460023 C165.76875,200.340489 150.45409,194.568966 131.5625,194.568966 C112.67091,194.568966 97.35625,200.340489 97.35625,207.460023 C97.35625,214.579558 112.67091,212.768106 131.5625,212.768106 Z" id="Oval" fill="#4D4949"></path>
                        <path d="M372.216959,85.0143678 C391.200677,85.0143678 372.216959,70.749795 372.216959,63.663751 C372.216959,56.577707 356.827614,50.8333333 337.843896,50.8333333 C318.860178,50.8333333 303.470833,56.577707 303.470833,63.663751 C303.470833,70.749795 353.23324,85.0143678 372.216959,85.0143678 Z" id="Oval" fill="#4D4949"></path>
                        <path d="M316.083625,213.850575 C335.067343,213.850575 316.083625,197.75721 316.083625,189.762699 C316.083625,181.768188 300.694281,175.287356 281.710563,175.287356 C262.726844,175.287356 247.3375,181.768188 247.3375,189.762699 C247.3375,197.75721 297.099907,213.850575 316.083625,213.850575 Z" id="Oval" fill="#4D4949"></path>
                        <path d="M133.464422,290.095617 C136.248953,290.095617 211.294382,291.068627 250.306035,265.469898 C311.736007,225.16068 376.156089,120.271956 376.270429,109.507011 C376.399447,97.0710202 338.748017,50.867224 300.897909,50.8333333 C251.080712,50.7911268 206.773852,138.004327 206.773852,135.166911 C206.773852,130.973181 167.779244,165.646451 158.731527,165.646451 C151.012076,165.646451 127.897997,193.613135 106.774618,205.204864 C76.1766633,221.99589 46.4854167,224.891627 46.4854167,229.65067 C46.4854167,233.375648 63.2449809,271.860624 76.5301544,276.663407 C91.9356381,282.232712 123.315321,290.095617 133.464422,290.095617 Z" id="Oval" fill="#5F5F66" opacity="0.422921317" transform="translate(211.377923, 170.466904) scale(1, -1) translate(-211.377923, -170.466904) "></path>
                        <path d="M303.924169,188.628796 C305.655948,188.628796 333.336502,193.4478 357.598967,177.470363 C395.804028,152.311381 412.756676,128.626651 412.826531,121.907715 C412.865525,118.248947 417.383214,99.0765968 412.826531,74.5370506 C407.716408,47.017009 393.098054,7.89943996 380.654167,7.88793103 C349.671423,7.86161829 298.208333,76.3080222 298.208333,74.5370506 C298.208333,69.5161033 223.132879,142.212164 211.37759,142.212164 C199.6223,142.212164 210.84102,146.548576 239.754547,156.766016 C241.977353,157.55151 253.82642,169.66475 262.08885,172.662405 C271.669962,176.138485 297.612152,188.628796 303.924169,188.628796 Z" id="Oval" fill="#424246" opacity="0.422921317" transform="translate(310.817135, 98.599476) scale(1, -1) translate(-310.817135, -98.599476) "></path>
                        <g id="Group-2" transform="translate(331.537500, 106.048851)">
                            <ellipse id="Oval" fill="#3F3F47" cx="28.1288191" cy="14.8400461" rx="28.1288191" ry="14.8400461"></ellipse>
                            <path d="M43.3614075,37.5232884 C58.8965253,37.5232884 56.2576383,27.4879911 56.2576383,19.2920599 C56.2576383,11.0961288 43.663937,4.45201383 28.1288191,4.45201383 C12.5937013,4.45201383 0,11.0961288 0,19.2920599 C0,27.4879911 27.8262896,37.5232884 43.3614075,37.5232884 Z" id="Oval" fill="url(#linearGradient-7)"></path>
                        </g>
                        <path d="M80.1482085,191.939655 C99.1319268,191.939655 80.1482085,175.846291 80.1482085,167.85178 C80.1482085,159.857269 64.7588642,153.376437 45.7751459,153.376437 C26.7914277,153.376437 11.4020833,159.857269 11.4020833,167.85178 C11.4020833,175.846291 61.1644903,191.939655 80.1482085,191.939655 Z" id="Oval" fill="#525252" transform="translate(49.993750, 172.658046) scale(1, -1) translate(-49.993750, -172.658046) "></path>
                        <path d="M357.551613,252.413793 C370.063609,252.413793 357.551613,241.806803 357.551613,236.537693 C357.551613,231.268584 347.408636,226.997126 334.89664,226.997126 C322.384644,226.997126 312.241667,231.268584 312.241667,236.537693 C312.241667,241.806803 345.039617,252.413793 357.551613,252.413793 Z" id="Oval" fill="#4D4949" transform="translate(337.677083, 239.705460) scale(1, -1) translate(-337.677083, -239.705460) "></path>
                        <path d="M142.502816,108.678161 C159.329293,108.678161 142.502816,94.4135881 142.502816,87.3275441 C142.502816,80.2415001 128.86226,74.4971264 112.035783,74.4971264 C95.2093052,74.4971264 81.56875,80.2415001 81.56875,87.3275441 C81.56875,94.4135881 125.676338,108.678161 142.502816,108.678161 Z" id="Oval" fill="#525252"></path>
                        <path d="M228.041667,110.225002 C246.933257,110.225002 262.247917,112.036454 262.247917,104.91692 C262.247917,97.7973852 246.933257,92.0258621 228.041667,92.0258621 C209.150076,92.0258621 193.835417,97.7973852 193.835417,104.91692 C193.835417,112.036454 209.150076,110.225002 228.041667,110.225002 Z" id="Oval" fill="#4D4949"></path>
                        <g id="Group-2" transform="translate(116.652083, 231.379310)">
                            <ellipse id="Oval" fill="#3F3F47" cx="28.1288191" cy="14.8737735" rx="28.1288191" ry="14.8737735"></ellipse>
                            <path d="M16.6754626,41.6465657 C32.2105804,41.6465657 56.2576383,27.5504638 56.2576383,19.3359055 C56.2576383,11.1213473 43.663937,4.46213204 28.1288191,4.46213204 C12.5937013,4.46213204 0,11.1213473 0,19.3359055 C0,27.5504638 1.14034474,41.6465657 16.6754626,41.6465657 Z" id="Oval" fill="url(#linearGradient-8)"></path>
                        </g>
                    </g>
                </g>
            </g>
        </g>
    </g>
</svg>