<?xml version="1.0" encoding="UTF-8"?>
<svg width="1306px" height="553px" viewBox="0 0 1306 553" version="1.1" xmlns="http://www.w3.org/2000/svg" xmlns:xlink="http://www.w3.org/1999/xlink">
    <title>Meteor 6</title>
    <defs>
        <filter x="-6.2%" y="-88.9%" width="112.5%" height="277.8%" filterUnits="objectBoundingBox" id="filter-1">
            <feGaussianBlur stdDeviation="16" in="SourceGraphic"></feGaussianBlur>
        </filter>
        <filter x="-4.6%" y="-100.0%" width="109.2%" height="300.0%" filterUnits="objectBoundingBox" id="filter-2">
            <feGaussianBlur stdDeviation="18" in="SourceGraphic"></feGaussianBlur>
        </filter>
        <linearGradient x1="50%" y1="0%" x2="50%" y2="100%" id="linearGradient-3">
            <stop stop-color="#636370" offset="0%"></stop>
            <stop stop-color="#89898B" offset="100%"></stop>
        </linearGradient>
        <linearGradient x1="50%" y1="0%" x2="50%" y2="100%" id="linearGradient-4">
            <stop stop-color="#636370" offset="0%"></stop>
            <stop stop-color="#89898B" offset="100%"></stop>
        </linearGradient>
        <linearGradient x1="50%" y1="0%" x2="50%" y2="100%" id="linearGradient-5">
            <stop stop-color="#636370" offset="0%"></stop>
            <stop stop-color="#89898B" offset="100%"></stop>
        </linearGradient>
        <linearGradient x1="50%" y1="0%" x2="50%" y2="100%" id="linearGradient-6">
            <stop stop-color="#636370" offset="0%"></stop>
            <stop stop-color="#89898B" offset="100%"></stop>
        </linearGradient>
        <linearGradient x1="50%" y1="0%" x2="50%" y2="100%" id="linearGradient-7">
            <stop stop-color="#636370" offset="0%"></stop>
            <stop stop-color="#89898B" offset="100%"></stop>
        </linearGradient>
        <linearGradient x1="50%" y1="0%" x2="50%" y2="100%" id="linearGradient-8">
            <stop stop-color="#636370" offset="0%"></stop>
            <stop stop-color="#89898B" offset="100%"></stop>
        </linearGradient>
    </defs>
    <g id="Page-1" stroke="none" stroke-width="1" fill="none" fill-rule="evenodd">
        <g id="Sago_Mini_Mars_infographic" transform="translate(-498.000000, -6982.000000)">
            <g id="Group-8" transform="translate(429.000000, 6879.000000)">
                <g id="Meteor-6" transform="translate(689.000000, 412.500000) scale(-1, 1) translate(-689.000000, -412.500000) translate(69.000000, 169.000000)">
                    <polygon id="Rectangle" fill="#FFFFFF" opacity="0.183082217" filter="url(#filter-1)" transform="translate(698.134714, 275.178437) rotate(14.000000) translate(-698.134714, -275.178437) " points="314.134714 248.178437 1082.13471 248.178437 1082.13471 302.178437"></polygon>
                    <polygon id="Rectangle" fill="#FFFFFF" opacity="0.183082217" filter="url(#filter-2)" transform="translate(573.888610, 167.934996) rotate(14.000000) translate(-573.888610, -167.934996) " points="-10.6113899 140.934996 1158.38861 140.934996 1158.38861 194.934996"></polygon>
                    <g id="Asteroid" transform="translate(1059.000000, 356.000000) scale(1, -1) translate(-1059.000000, -356.000000) translate(878.000000, 225.000000)">
                        <path d="M226.778786,261.450838 C286.633148,261.450838 296.650126,237.229919 309.098363,224.292569 C326.159461,206.561109 332.97416,203.77895 332.97416,168.070903 C332.97416,140.987702 357.204658,137.426218 359.660931,109.587691 C361.016936,94.219213 369.874598,45.3871877 338.501243,33.9032393 C315.63831,25.5344584 293.390864,2.36108152e-13 268.526482,2.36108152e-13 C247.635685,2.36108152e-13 204.695405,33.9032393 184.406984,33.9032393 C108.180891,33.9032393 92.7482581,32.248409 57.6610483,50.6027439 C52.4757026,53.3152301 49.3165951,57.916605 42.8872119,61.498609 C36.0701799,65.2965839 32.1737546,104.418704 27.149756,109.587691 C9.41187644,127.837469 0.318192355,139.893762 0.318192355,158.345751 C0.318192355,186.924831 -5.71929812,230.800802 34.8037915,250.56995 C81.8542284,273.523459 92.638443,250.56995 226.778786,261.450838 Z" id="Oval" fill="#4D4F63"></path>
                        <g id="Group-2" transform="translate(42.179577, 190.429268)">
                            <ellipse id="Oval" fill="#3F3F47" cx="14.0598592" cy="7.66829268" rx="14.0598592" ry="7.66829268"></ellipse>
                            <path d="M21.6085112,19.1707317 C29.3502056,19.1707317 28.0351556,14.1291119 28.0351556,10.0115688 C28.0351556,5.89402573 21.7592722,2.55609756 14.0175778,2.55609756 C6.27588335,2.55609756 0,5.89402573 0,10.0115688 C0,14.1291119 13.8668167,19.1707317 21.6085112,19.1707317 Z" id="Oval" fill="url(#linearGradient-3)"></path>
                        </g>
                        <g id="Group-2" transform="translate(219.936059, 52.784015) scale(1, -1) translate(-219.936059, -52.784015) translate(205.785211, 42.943639)">
                            <ellipse id="Oval" fill="#3F3F47" cx="14.0598592" cy="7.66829268" rx="14.0598592" ry="7.66829268"></ellipse>
                            <path d="M21.6085112,19.1707317 C29.3502056,19.1707317 28.0351556,14.1291119 28.0351556,10.0115688 C28.0351556,5.89402573 21.7592722,2.55609756 14.0175778,2.55609756 C6.27588335,2.55609756 0,5.89402573 0,10.0115688 C0,14.1291119 13.8668167,19.1707317 21.6085112,19.1707317 Z" id="Oval" fill="url(#linearGradient-3)"></path>
                        </g>
                        <g id="Group-2" transform="translate(234.325209, 224.234559) scale(1, -1) translate(-234.325209, -224.234559) translate(212.176056, 209.473995)">
                            <ellipse id="Oval" fill="#3F3F47" cx="21.7288732" cy="11.502439" rx="21.7288732" ry="11.502439"></ellipse>
                            <path d="M33.3949718,29.395122 C45.3594087,29.395122 43.3270586,21.6387837 43.3270586,15.3041021 C43.3270586,8.96942045 33.6279662,3.83414634 21.6635293,3.83414634 C9.69909245,3.83414634 0,8.96942045 0,15.3041021 C0,21.6387837 21.4305349,29.395122 33.3949718,29.395122 Z" id="Oval" fill="url(#linearGradient-4)"></path>
                        </g>
                        <g id="Group-2" transform="translate(283.753521, 162.312195)">
                            <ellipse id="Oval" fill="#3F3F47" cx="13.4207746" cy="7.02926829" rx="13.4207746" ry="7.02926829"></ellipse>
                            <path d="M20.6263061,16.6146341 C28.0161053,16.6146341 26.7608303,11.9608312 26.7608303,8.16002223 C26.7608303,4.35921325 20.7702144,1.27804878 13.3804152,1.27804878 C5.99061592,1.27804878 0,4.35921325 0,8.16002223 C0,11.9608312 13.2365069,16.6146341 20.6263061,16.6146341 Z" id="Oval" fill="url(#linearGradient-5)"></path>
                        </g>
                        <path d="M36.8247483,254.788062 C39.0856257,254.788062 50.4806608,258.238869 81.8028169,235.617331 C83.6176508,234.306618 123.425274,189.356463 125.260563,188.155901 C178.028092,153.637805 219.748589,134.923508 219.84572,125.705135 C220.103228,101.03944 66.4647887,118.763125 66.4647887,114.487262 C66.4647887,107.598528 45.3917391,128.261233 29.1557342,128.261233 C12.9197294,128.261233 3.83450704,176.021265 3.83450704,182.909999 C3.83450704,186.099819 2.37845812,230.865527 13.7902454,234.978306 C27.0233508,239.747484 28.1068055,254.788062 36.8247483,254.788062 Z" id="Oval" fill="#80808C" opacity="0.354515439" transform="translate(111.810022, 183.628177) scale(1, -1) translate(-111.810022, -183.628177) "></path>
                        <path d="M148.267606,178.926829 C164.50361,178.926829 177.665493,180.453357 177.665493,174.453659 C177.665493,168.45396 164.50361,163.590244 148.267606,163.590244 C132.031601,163.590244 118.869718,168.45396 118.869718,174.453659 C118.869718,180.453357 132.031601,178.926829 148.267606,178.926829 Z" id="Oval" fill="#4D4949"></path>
                        <path d="M319.542254,72.3944741 C335.778258,72.3944741 319.542254,60.3167714 319.542254,54.3170732 C319.542254,48.3173749 306.380371,43.4536585 290.144366,43.4536585 C273.908361,43.4536585 260.746479,48.3173749 260.746479,54.3170732 C260.746479,60.3167714 303.306249,72.3944741 319.542254,72.3944741 Z" id="Oval" fill="#4D4949"></path>
                        <path d="M270.971831,183.584718 C287.207836,183.584718 270.971831,169.71734 270.971831,162.828606 C270.971831,155.939872 257.809949,150.35545 241.573944,150.35545 C225.337939,150.35545 212.176056,155.939872 212.176056,162.828606 C212.176056,169.71734 254.735826,183.584718 270.971831,183.584718 Z" id="Oval" fill="#4D4949"></path>
                        <path d="M114.337048,248.34586 C116.728922,248.34586 154.658742,162.261031 188.169232,140.340006 C240.93676,105.82191 322.805958,102.920331 322.902733,93.7019579 C323.015,83.0526145 290.672922,43.4867999 258.160184,43.4578174 C215.367874,43.4216353 140.568634,88.4634364 140.568634,86.0336652 C140.568634,79.1449312 122.112105,117.984885 105.8761,117.984885 C89.6400951,117.984885 39.6232394,189.696151 39.6232394,196.584885 C39.6232394,199.774705 54.019482,232.730642 65.4312693,236.843421 C78.6643747,241.612599 105.619105,248.34586 114.337048,248.34586 Z" id="Oval" fill="#5F5F66" opacity="0.422921317" transform="translate(181.262986, 145.901839) scale(1, -1) translate(-181.262986, -145.901839) "></path>
                        <path d="M260.97104,189.846385 C262.460369,189.846385 286.265626,193.970518 307.131328,180.296927 C339.987653,158.765711 354.566919,138.496169 354.626994,132.746061 C354.660529,129.614864 358.545738,113.207046 354.626994,92.2059469 C350.232292,68.6541212 333.604467,6.86752621 322.902733,6.85728666 C296.257596,6.83515818 219.936059,36.4909381 219.936059,34.9753294 C219.936059,30.6783709 191.372526,59.2582562 181.262986,59.2582562 C176.781861,59.2582562 126.18193,123.051282 129.09507,144.50351 C132.754054,171.448089 191.941458,157.709773 205.785211,162.578016 C207.696823,163.250247 217.887012,173.616834 224.992696,176.182246 C233.232446,179.157097 255.54271,189.846385 260.97104,189.846385 Z" id="Oval" fill="#424246" opacity="0.422921317" transform="translate(242.675088, 98.643762) scale(1, -1) translate(-242.675088, -98.643762) "></path>
                        <g id="Group-2" transform="translate(284.247458, 91.023474)">
                            <ellipse id="Oval" fill="#3F3F47" cx="24.2852113" cy="12.7804878" rx="24.2852113" ry="12.7804878"></ellipse>
                            <path d="M37.4363721,32.3156631 C50.848724,32.3156631 48.5704225,23.6731027 48.5704225,16.6146341 C48.5704225,9.55616564 37.6975631,3.83414634 24.2852113,3.83414634 C10.8728594,3.83414634 0,9.55616564 0,16.6146341 C0,23.6731027 24.0240203,32.3156631 37.4363721,32.3156631 Z" id="Oval" fill="url(#linearGradient-6)"></path>
                        </g>
                        <path d="M69.0211268,164.868293 C85.2571316,164.868293 69.0211268,151.000915 69.0211268,144.112181 C69.0211268,137.223447 55.8592443,131.639024 39.6232394,131.639024 C23.3872346,131.639024 10.2253521,137.223447 10.2253521,144.112181 C10.2253521,151.000915 52.7851219,164.868293 69.0211268,164.868293 Z" id="Oval" fill="#525252" transform="translate(43.231241, 148.253659) scale(1, -1) translate(-43.231241, -148.253659) "></path>
                        <path d="M307.122705,215.990244 C317.811407,215.990244 307.122705,206.923112 307.122705,202.41894 C307.122705,197.914768 298.457801,194.263415 287.769099,194.263415 C277.080398,194.263415 268.415493,197.914768 268.415493,202.41894 C268.415493,206.923112 296.434004,215.990244 307.122705,215.990244 Z" id="Oval" fill="#4D4949" transform="translate(290.144366, 205.126829) scale(1, -1) translate(-290.144366, -205.126829) "></path>
                        <path d="M122.667877,93.297561 C137.129062,93.297561 122.667877,81.0302652 122.667877,74.9363851 C122.667877,68.8425049 110.944771,63.902439 96.4835865,63.902439 C82.0224021,63.902439 70.2992958,68.8425049 70.2992958,74.9363851 C70.2992958,81.0302652 108.206693,93.297561 122.667877,93.297561 Z" id="Oval" fill="#525252"></path>
                        <path d="M195.559859,94.5756098 C211.795864,94.5756098 224.957746,96.1021373 224.957746,90.102439 C224.957746,84.1027408 211.795864,79.2390244 195.559859,79.2390244 C179.323854,79.2390244 166.161972,84.1027408 166.161972,90.102439 C166.161972,96.1021373 179.323854,94.5756098 195.559859,94.5756098 Z" id="Oval" fill="#4D4949"></path>
                        <g id="Group-2" transform="translate(141.829100, 112.468293)">
                            <ellipse id="Oval" fill="#3F3F47" cx="24.3328718" cy="12.7804878" rx="24.2852113" ry="12.7804878"></ellipse>
                            <path d="M12.7145152,35.7853659 C26.126867,35.7853659 48.6184501,23.6731027 48.6184501,16.6146341 C48.6184501,9.55616564 37.7452236,3.83414634 24.3328718,3.83414634 C10.92052,3.83414634 0.0476605395,9.55616564 0.0476605395,16.6146341 C0.0476605395,23.6731027 -0.697836646,35.7853659 12.7145152,35.7853659 Z" id="Oval" fill="url(#linearGradient-7)"></path>
                        </g>
                        <g id="Group-2" transform="translate(99.697183, 198.097561)">
                            <ellipse id="Oval" fill="#3F3F47" cx="24.2852113" cy="12.7804878" rx="24.2852113" ry="12.7804878"></ellipse>
                            <path d="M14.3968764,35.7853659 C27.8092282,35.7853659 48.5704225,23.6731027 48.5704225,16.6146341 C48.5704225,9.55616564 37.6975631,3.83414634 24.2852113,3.83414634 C10.8728594,3.83414634 0,9.55616564 0,16.6146341 C0,23.6731027 0.984524547,35.7853659 14.3968764,35.7853659 Z" id="Oval" fill="url(#linearGradient-8)"></path>
                        </g>
                    </g>
                </g>
            </g>
        </g>
    </g>
</svg>