<?xml version="1.0" encoding="UTF-8"?>
<svg width="1689px" height="546px" viewBox="0 0 1689 546" version="1.1" xmlns="http://www.w3.org/2000/svg" xmlns:xlink="http://www.w3.org/1999/xlink">
    <title>Meteor 2</title>
    <defs>
        <filter x="-4.7%" y="-66.4%" width="109.4%" height="232.9%" filterUnits="objectBoundingBox" id="filter-1">
            <feGaussianBlur stdDeviation="16" in="SourceGraphic"></feGaussianBlur>
        </filter>
        <filter x="-3.5%" y="-74.7%" width="106.9%" height="249.4%" filterUnits="objectBoundingBox" id="filter-2">
            <feGaussianBlur stdDeviation="18" in="SourceGraphic"></feGaussianBlur>
        </filter>
        <linearGradient x1="50%" y1="0%" x2="50%" y2="100%" id="linearGradient-3">
            <stop stop-color="#636370" offset="0%"></stop>
            <stop stop-color="#89898B" offset="100%"></stop>
        </linearGradient>
        <linearGradient x1="50%" y1="0%" x2="50%" y2="100%" id="linearGradient-4">
            <stop stop-color="#636370" offset="0%"></stop>
            <stop stop-color="#89898B" offset="100%"></stop>
        </linearGradient>
        <linearGradient x1="50%" y1="0%" x2="50%" y2="100%" id="linearGradient-5">
            <stop stop-color="#636370" offset="0%"></stop>
            <stop stop-color="#89898B" offset="100%"></stop>
        </linearGradient>
        <linearGradient x1="50%" y1="0%" x2="50%" y2="100%" id="linearGradient-6">
            <stop stop-color="#636370" offset="0%"></stop>
            <stop stop-color="#89898B" offset="100%"></stop>
        </linearGradient>
        <linearGradient x1="50%" y1="0%" x2="50%" y2="100%" id="linearGradient-7">
            <stop stop-color="#636370" offset="0%"></stop>
            <stop stop-color="#89898B" offset="100%"></stop>
        </linearGradient>
        <linearGradient x1="50%" y1="0%" x2="50%" y2="100%" id="linearGradient-8">
            <stop stop-color="#636370" offset="0%"></stop>
            <stop stop-color="#89898B" offset="100%"></stop>
        </linearGradient>
    </defs>
    <g id="Page-1" stroke="none" stroke-width="1" fill="none" fill-rule="evenodd">
        <g id="Sago_Mini_Mars_infographic" transform="translate(-458.000000, -2135.000000)">
            <g id="Group" transform="translate(414.000000, 1960.000000)">
                <g id="Meteor-2" transform="translate(857.000000, 468.000000) scale(-1, 1) translate(-857.000000, -468.000000) translate(44.000000, 238.000000)">
                    <polygon id="Rectangle" fill="#FFFFFF" opacity="0.183082217" filter="url(#filter-1)" transform="translate(950.950257, 302.575171) rotate(10.000000) translate(-950.950257, -302.575171) " points="437.993881 266.448761 1463.90061 266.534419 1463.90663 338.701582"></polygon>
                    <polygon id="Rectangle" fill="#FFFFFF" opacity="0.183082217" filter="url(#filter-2)" transform="translate(775.394058, 171.181918) rotate(10.000000) translate(-775.394058, -171.181918) " points="-5.39343735 135.033145 1556.17553 135.163528 1556.18155 207.330691"></polygon>
                    <g id="Asteroid" transform="translate(1433.500000, 336.177324) scale(1, -1) translate(-1433.500000, -336.177324) translate(1241.000000, 213.177324)">
                        <path d="M241.294567,246 C304.98012,246 315.63827,223.210453 328.8833,211.037655 C347.036455,194.354063 354.287353,191.736321 354.287353,158.138495 C354.287353,132.655817 380.06881,129.304805 382.682306,103.111438 C384.125107,88.651184 393.549735,42.7049622 360.168216,31.8996754 C335.841861,24.0254604 312.170387,0 285.714473,0 C263.486486,0 217.797661,31.8996754 196.210607,31.8996754 C115.105393,31.8996754 98.6849396,30.3426398 61.3518484,47.6122971 C55.8345963,50.1644848 52.4732788,54.4939344 45.6323602,57.8642543 C38.3789798,61.4377821 34.23315,98.2479203 28.8875725,103.111438 C10.014317,120.282718 0.338559386,131.626526 0.338559386,148.988066 C0.338559386,175.878221 -6.0853821,217.161274 37.0315317,235.762135 C87.0935989,257.35917 98.5680953,235.762135 241.294567,246 Z" id="Oval" fill="#4D4F63"></path>
                        <g id="Group-2" transform="translate(151.059028, 105.619565)">
                            <ellipse id="Oval" fill="#3F3F47" cx="25.7739877" cy="11.576087" rx="25.7235044" ry="11.576087"></ellipse>
                            <path d="M13.4675331,32.4130435 C27.6742324,32.4130435 51.4978809,21.4422093 51.4978809,15.048913 C51.4978809,8.65561676 39.9806869,3.47282609 25.7739877,3.47282609 C11.5672885,3.47282609 0.050483238,8.65561676 0.050483238,15.048913 C0.050483238,21.4422093 -0.739166065,32.4130435 13.4675331,32.4130435 Z" id="Oval" fill="url(#linearGradient-3)"></path>
                        </g>
                        <g id="Group-2" transform="translate(45.451389, 179.152174)">
                            <ellipse id="Oval" fill="#3F3F47" cx="14.6103106" cy="7.29293478" rx="14.6103106" ry="7.29293478"></ellipse>
                            <path d="M22.4544965,18.232337 C30.4992827,18.232337 29.1327477,13.4375011 29.1327477,9.52150907 C29.1327477,5.60551704 22.61116,2.43097826 14.5663739,2.43097826 C6.52158772,2.43097826 0,5.60551704 0,9.52150907 C0,13.4375011 14.4097104,18.232337 22.4544965,18.232337 Z" id="Oval" fill="url(#linearGradient-4)"></path>
                        </g>
                        <g id="Group-2" transform="translate(233.940972, 49.467391) scale(1, -1) translate(-233.940972, -49.467391) translate(219.236111, 40.108696)">
                            <ellipse id="Oval" fill="#3F3F47" cx="14.6103106" cy="7.29293478" rx="14.6103106" ry="7.29293478"></ellipse>
                            <path d="M22.4544965,18.232337 C30.4992827,18.232337 29.1327477,13.4375011 29.1327477,9.52150907 C29.1327477,5.60551704 22.61116,2.43097826 14.5663739,2.43097826 C6.52158772,2.43097826 0,5.60551704 0,9.52150907 C0,13.4375011 14.4097104,18.232337 22.4544965,18.232337 Z" id="Oval" fill="url(#linearGradient-4)"></path>
                        </g>
                        <g id="Group-2" transform="translate(249.314236, 209.233696) scale(1, -1) translate(-249.314236, -209.233696) translate(225.920139, 195.195652)">
                            <ellipse id="Oval" fill="#3F3F47" cx="22.9501951" cy="10.9394022" rx="22.9501951" ry="10.9394022"></ellipse>
                            <path d="M35.2720139,27.95625 C47.9089398,27.95625 45.7623568,20.5795795 45.7623568,14.5549763 C45.7623568,8.5303732 35.5181043,3.64646739 22.8811784,3.64646739 C10.2442525,3.64646739 0,8.5303732 0,14.5549763 C0,20.5795795 22.635088,27.95625 35.2720139,27.95625 Z" id="Oval" fill="url(#linearGradient-5)"></path>
                        </g>
                        <g id="Group-2" transform="translate(302.118056, 152.413043)">
                            <ellipse id="Oval" fill="#3F3F47" cx="13.9173911" cy="7.09448758" rx="13.9173911" ry="7.09448758"></ellipse>
                            <path d="M21.3895528,16.7687888 C29.0528009,16.7687888 27.7510763,12.0718068 27.7510763,8.23573293 C27.7510763,4.3996591 21.5387862,1.28990683 13.8755381,1.28990683 C6.21229003,1.28990683 0,4.3996591 0,8.23573293 C0,12.0718068 13.7263047,16.7687888 21.3895528,16.7687888 Z" id="Oval" fill="url(#linearGradient-6)"></path>
                        </g>
                        <path d="M39.1807463,239.138533 C41.58664,239.138533 53.7125706,242.371663 87.0437794,221.177085 C88.9750196,219.949052 131.335967,177.834338 133.288974,176.709507 C189.441095,144.368802 233.837611,126.834997 233.940972,118.198117 C234.214997,95.0883255 70.7219458,111.694006 70.7219458,107.687863 C70.7219458,101.233668 48.2972374,120.592976 31.0198295,120.592976 C13.7424216,120.592976 4.07445878,165.340321 4.07445878,171.794515 C4.07445878,174.783122 2.52501658,216.725024 14.6687739,220.57837 C28.7506716,225.046709 29.9036209,239.138533 39.1807463,239.138533 Z" id="Oval" fill="#80808C" opacity="0.354515439" transform="translate(118.975694, 172.467391) scale(1, -1) translate(-118.975694, -172.467391) "></path>
                        <path d="M158.411458,166.969903 C175.761445,166.969903 189.826389,168.285746 189.826389,163.114098 C189.826389,157.942449 175.761445,153.75 158.411458,153.75 C141.061471,153.75 126.996528,157.942449 126.996528,163.114098 C126.996528,168.285746 141.061471,166.969903 158.411458,166.969903 Z" id="Oval" fill="#4D4949"></path>
                        <path d="M339.824482,68.1847826 C357.250648,68.1847826 339.824482,56.4679521 339.824482,50.6475201 C339.824482,44.8270881 325.697782,40.1086957 308.271616,40.1086957 C290.845449,40.1086957 276.71875,44.8270881 276.71875,50.6475201 C276.71875,56.4679521 322.398315,68.1847826 339.824482,68.1847826 Z" id="Oval" fill="#4D4949"></path>
                        <path d="M287.689065,172.467391 C305.115231,172.467391 287.689065,159.634672 287.689065,153.259913 C287.689065,146.885154 273.562366,141.717391 256.136199,141.717391 C238.710033,141.717391 224.583333,146.885154 224.583333,153.259913 C224.583333,159.634672 270.262898,172.467391 287.689065,172.467391 Z" id="Oval" fill="#4D4949"></path>
                        <path d="M122.107199,231.293478 C124.646837,231.293478 167.977994,170.061336 203.55867,149.60648 C259.58603,117.397097 343.454743,95.5946107 343.559028,86.9928009 C343.676699,77.0557297 309.336617,40.1362406 274.815331,40.1086957 C229.379431,40.0754346 149.959301,82.1046534 149.959301,79.8373954 C149.959301,73.4094084 130.362578,109.651585 113.123557,109.651585 C95.8845367,109.651585 42.7777778,176.566504 42.7777778,182.994491 C42.7777778,185.970963 58.0633805,216.722671 70.1801564,220.56037 C84.2307666,225.010565 112.850685,231.293478 122.107199,231.293478 Z" id="Oval" fill="#5F5F66" opacity="0.422921317" transform="translate(193.168403, 135.701087) scale(1, -1) translate(-193.168403, -135.701087) "></path>
                        <path d="M276.725951,165.234635 C278.31183,165.234635 303.660335,169.105329 325.878721,156.272018 C360.865058,136.063955 376.389469,117.040033 376.453439,111.643285 C376.489148,108.704509 380.626227,93.3049968 376.453439,73.5944739 C371.773837,51.4899734 346.263092,6.69493703 334.867585,6.68478261 C306.495096,6.66455811 224.767683,49.4917719 224.767683,48.0693015 C224.767683,45.6860394 193.243163,66.3543238 167.266675,89.8972802 C149.286379,106.193144 125.695227,131.431282 121.291891,131.431282 C110.526969,131.431282 191.48493,131.435186 217.962532,139.641984 C219.99807,140.272904 230.848869,150.002436 238.415201,152.410196 C247.189117,155.202234 270.945713,165.234635 276.725951,165.234635 Z" id="Oval" fill="#424246" opacity="0.422921317" transform="translate(249.314236, 86.233696) scale(1, -1) translate(-249.314236, -86.233696) "></path>
                        <g id="Group-2" transform="translate(302.118056, 86.902174)">
                            <ellipse id="Oval" fill="#3F3F47" cx="25.7235044" cy="11.8333333" rx="25.7235044" ry="11.8333333"></ellipse>
                            <path d="M39.6535436,29.9207682 C53.8602429,29.9207682 51.4470089,21.9187029 51.4470089,15.3833333 C51.4470089,8.84796379 39.9302037,3.55 25.7235044,3.55 C11.5168052,3.55 0,8.84796379 0,15.3833333 C0,21.9187029 25.4468444,29.9207682 39.6535436,29.9207682 Z" id="Oval" fill="url(#linearGradient-7)"></path>
                        </g>
                        <path d="M73.800176,153.75 C91.2263425,153.75 73.800176,140.917281 73.800176,134.542522 C73.800176,128.167763 59.6734768,123 42.2473102,123 C24.8211436,123 10.6944444,128.167763 10.6944444,134.542522 C10.6944444,140.917281 56.3740094,153.75 73.800176,153.75 Z" id="Oval" fill="#525252" transform="translate(46.119792, 138.375000) scale(1, -1) translate(-46.119792, -138.375000) "></path>
                        <path d="M326.559311,203.217391 C337.738361,203.217391 326.559311,194.848227 326.559311,190.690775 C326.559311,186.533324 317.4969,183.163043 306.31785,183.163043 C295.1388,183.163043 286.076389,186.533324 286.076389,190.690775 C286.076389,194.848227 315.380261,203.217391 326.559311,203.217391 Z" id="Oval" fill="#4D4949" transform="translate(308.802083, 193.190217) scale(1, -1) translate(-308.802083, -193.190217) "></path>
                        <path d="M130.822798,86.9021739 C146.276191,86.9021739 130.822798,75.1853434 130.822798,69.3649114 C130.822798,63.5444794 118.295347,58.826087 102.841954,58.826087 C87.3885613,58.826087 74.8611111,63.5444794 74.8611111,69.3649114 C74.8611111,75.1853434 115.369405,86.9021739 130.822798,86.9021739 Z" id="Oval" fill="#525252"></path>
                        <path d="M207.873264,89.4264248 C225.223251,89.4264248 239.288194,90.7422682 239.288194,85.5706197 C239.288194,80.3989712 225.223251,76.2065217 207.873264,76.2065217 C190.523277,76.2065217 176.458333,80.3989712 176.458333,85.5706197 C176.458333,90.7422682 190.523277,89.4264248 207.873264,89.4264248 Z" id="Oval" fill="#4D4949"></path>
                        <g id="Group-2" transform="translate(106.944444, 187.173913)">
                            <ellipse id="Oval" fill="#3F3F47" cx="25.7235044" cy="11.576087" rx="25.7235044" ry="11.576087"></ellipse>
                            <path d="M15.2495323,32.4130435 C29.4562315,32.4130435 51.4470089,21.4422093 51.4470089,15.048913 C51.4470089,8.65561676 39.9302037,3.47282609 25.7235044,3.47282609 C11.5168052,3.47282609 0,8.65561676 0,15.048913 C0,21.4422093 1.04283308,32.4130435 15.2495323,32.4130435 Z" id="Oval" fill="url(#linearGradient-8)"></path>
                        </g>
                    </g>
                </g>
            </g>
        </g>
    </g>
</svg>